<svg width="1374" height="364" viewBox="0 0 1374 364" fill="none" xmlns="http://www.w3.org/2000/svg">
<path d="M70.6 64.8C67.6667 64.8 65.2667 63.8667 63.4 62C61.5333 60.1333 60.6 57.7333 60.6 54.8V27.6C60.6 24.6667 61.5333 22.2667 63.4 20.4C65.2667 18.5333 67.6667 17.6 70.6 17.6H174.2C197.933 17.6 217.8 21.0667 233.8 28C249.8 34.9333 261.8 45.6 269.8 60C277.8 74.4 281.8 92.9333 281.8 115.6V236C281.8 238.933 280.867 241.333 279 243.2C277.133 245.067 274.867 246 272.2 246H234.2C231.267 246 228.867 245.067 227 243.2C225.133 241.333 224.2 239.067 224.2 236.4V117.6C224.2 100.533 220.067 87.4667 211.8 78.4C203.533 69.3333 190.2 64.8 171.8 64.8H70.6ZM116.6 39.2H132.6C139 39.2 143.4 40.5333 145.8 43.2C148.467 45.8667 149.4 48.8 148.6 52C146.2 61.0667 144.2 69.7333 142.6 78C141 86 139.933 94.1333 139.4 102.4C138.867 110.4 138.6 119.6 138.6 130L141 236C141 238.933 140.067 241.333 138.2 243.2C136.333 245.067 133.933 246 131 246L55 245.6C52.3333 245.6 50.0667 244.667 48.2 242.8C46.3333 240.933 45.4 238.533 45.4 235.6V210.4C45.4 207.467 46.3333 205.067 48.2 203.2C50.0667 201.333 52.3333 200.4 55 200.4L87 200.8V130.8C87 121.467 87.1333 112.667 87.4 104.4C87.9333 96.1333 88.8667 87.7333 90.2 79.2C91.8 70.6667 94.0667 61.6 97 52C98.3333 48.5333 100.333 45.6 103 43.2C105.667 40.5333 110.2 39.2 116.6 39.2ZM317.516 246C314.582 246 312.182 245.067 310.316 243.2C308.449 241.333 307.516 238.933 307.516 236V27.6C307.516 24.6667 308.449 22.2667 310.316 20.4C312.182 18.5333 314.582 17.6 317.516 17.6H357.516C360.182 17.6 362.449 18.5333 364.316 20.4C366.182 22.2667 367.116 24.6667 367.116 27.6V236C367.116 238.933 366.182 241.333 364.316 243.2C362.449 245.067 360.182 246 357.516 246H317.516ZM496.834 246C493.901 246 491.501 245.067 489.634 243.2C488.034 241.333 487.101 238.933 486.834 236L462.834 115.6C460.434 104.133 457.768 94.6667 454.834 87.2C451.901 79.7333 447.901 74.1333 442.834 70.4C437.768 66.6667 430.701 64.8 421.634 64.8H407.634C404.701 64.8 402.301 63.8667 400.434 62C398.568 60.1333 397.634 57.7333 397.634 54.8V25.2C397.634 22.5333 398.568 20.2667 400.434 18.4C402.301 16.5333 404.701 15.6 407.634 15.6H422.834C443.901 15.6 460.834 19.0667 473.634 26C486.701 32.6667 496.968 43.2 504.434 57.6C511.901 72 517.901 90.5333 522.434 113.2L546.434 236C546.968 238.933 546.168 241.333 544.034 243.2C541.901 245.067 539.501 246 536.834 246H496.834ZM453.634 226C443.234 232.4 433.634 237.467 424.834 241.2C416.034 244.667 406.968 247.333 397.634 249.2C394.968 249.467 392.701 249.2 390.834 248.4C388.968 247.6 388.034 245.867 388.034 243.2V207.2C388.034 202.667 390.834 199.333 396.434 197.2C398.301 196.4 401.768 195.2 406.834 193.6C412.168 192 417.901 190.133 424.034 188C430.168 185.867 435.368 183.733 439.634 181.6C445.768 178.133 451.634 173.733 457.234 168.4C463.101 162.8 468.034 156.8 472.034 150.4C476.301 144 479.101 137.867 480.434 132L503.634 131.6C502.568 146.533 499.901 160.133 495.634 172.4C491.368 184.4 485.634 194.933 478.434 204C471.234 213.067 462.968 220.4 453.634 226ZM676.297 66.8H564.697C561.764 66.8 559.364 65.8667 557.497 64C555.63 62.1333 554.697 59.8667 554.697 57.2V27.6C554.697 24.6667 555.63 22.2667 557.497 20.4C559.364 18.5333 561.764 17.6 564.697 17.6H684.297C701.897 17.6 717.497 21.2 731.097 28.4C744.964 35.3333 755.764 46.1333 763.497 60.8C771.497 75.2 775.497 93.3333 775.497 115.2V236C775.497 238.933 774.564 241.333 772.697 243.2C770.83 245.067 768.43 246 765.497 246H658.697C655.764 246 653.364 245.067 651.497 243.2C649.63 241.333 648.697 238.933 648.697 236V208.8C648.697 205.867 649.63 203.467 651.497 201.6C653.364 199.733 655.764 198.8 658.697 198.8H717.897V118.4C717.897 107.467 716.03 98.1333 712.297 90.4C708.83 82.6667 703.897 76.8 697.497 72.8C691.364 68.8 684.297 66.8 676.297 66.8ZM561.097 246C558.43 246 556.164 245.067 554.297 243.2C552.43 241.067 551.764 238.667 552.297 236L592.297 53.2C592.83 50.5333 594.03 48.4 595.897 46.8C597.764 44.9333 600.03 44.1333 602.697 44.4L634.697 44.8C637.63 45.0667 640.03 46.4 641.897 48.8C643.764 50.9333 644.43 53.3333 643.897 56L608.697 236C608.43 238.667 607.23 241.067 605.097 243.2C603.23 245.067 600.964 246 598.297 246H561.097ZM811.141 246C808.207 246 805.807 245.067 803.941 243.2C802.074 241.333 801.141 238.933 801.141 236V27.6C801.141 24.6667 802.074 22.2667 803.941 20.4C805.807 18.5333 808.207 17.6 811.141 17.6H851.141C853.807 17.6 856.074 18.5333 857.941 20.4C859.807 22.2667 860.741 24.6667 860.741 27.6V236C860.741 238.933 859.807 241.333 857.941 243.2C856.074 245.067 853.807 246 851.141 246H811.141ZM1044.86 246C1040.86 246 1037.79 245.067 1035.66 243.2C1033.79 241.067 1032.33 239.467 1031.26 238.4L886.859 32C885.526 30.1333 884.859 28.1333 884.859 26C884.859 23.8667 885.659 22 887.259 20.4C888.859 18.5333 890.859 17.6 893.259 17.6H931.259C935.259 17.6 938.193 18.6667 940.059 20.8C941.926 22.6666 943.393 24.2667 944.459 25.6L1090.46 231.6C1091.53 232.933 1092.19 234.133 1092.46 235.2C1092.73 236 1092.86 236.8 1092.86 237.6C1092.86 239.733 1091.93 241.733 1090.06 243.6C1088.46 245.2 1086.59 246 1084.46 246H1044.86ZM892.059 246C889.393 246 887.126 245.067 885.259 243.2C883.393 241.067 882.459 238.533 882.459 235.6V182.8C882.459 168.667 883.659 156 886.059 144.8C888.726 133.333 893.526 122.8 900.459 113.2C907.393 103.6 917.526 94.4 930.859 85.6L958.859 126C951.393 131.067 945.793 136.933 942.059 143.6C938.593 150.267 936.326 157.067 935.259 164C934.193 170.667 933.659 176.933 933.659 182.8V235.6C933.659 238.8 932.726 241.333 930.859 243.2C928.993 245.067 926.726 246 924.059 246H892.059ZM1034.06 169.6L1006.86 129.6C1016.73 124.8 1023.66 119.6 1027.66 114C1031.66 108.4 1034.06 102.667 1034.86 96.8C1035.93 90.6667 1036.46 84.6667 1036.46 78.8V28C1036.46 24.8 1037.39 22.2667 1039.26 20.4C1041.13 18.5333 1043.39 17.6 1046.06 17.6H1080.06C1082.73 17.6 1084.99 18.6667 1086.86 20.8C1088.73 22.6666 1089.66 25.0667 1089.66 28V80.4C1089.66 91.3333 1088.19 102 1085.26 112.4C1082.59 122.8 1077.26 132.8 1069.26 142.4C1061.53 152 1049.79 161.067 1034.06 169.6Z" fill="#200060"/>
<path d="M46.6511 349.19C45.9911 349.19 45.4511 348.98 45.0311 348.56C44.6111 348.14 44.4011 347.6 44.4011 346.94V303.11C44.4011 302.51 44.6111 302 45.0311 301.58C45.4511 301.1 45.9911 300.86 46.6511 300.86H56.3711C57.0311 300.86 57.5711 301.1 57.9911 301.58C58.4111 302 58.6211 302.51 58.6211 303.11V346.94C58.6211 347.6 58.4111 348.14 57.9911 348.56C57.5711 348.98 57.0311 349.19 56.3711 349.19H46.6511ZM67.9811 333.08C67.4411 333.26 66.9011 333.08 66.3611 332.54C65.8811 332 65.6411 331.43 65.6411 330.83V322.19C65.6411 321.59 65.8511 321.02 66.2711 320.48C66.6911 319.94 67.2311 319.55 67.8911 319.31L70.7711 318.14C72.4511 317.42 73.9811 316.52 75.3611 315.44C76.8011 314.3 77.9411 312.8 78.7811 310.94C79.6211 309.08 80.0411 306.65 80.0411 303.65C80.0411 301.07 79.7411 299 79.1411 297.44C78.5411 295.88 77.5211 294.74 76.0811 294.02C74.6411 293.3 72.6611 292.94 70.1411 292.94H46.6511C46.0511 292.94 45.5111 292.73 45.0311 292.31C44.6111 291.89 44.4011 291.35 44.4011 290.69V282.77C44.4011 282.17 44.6111 281.66 45.0311 281.24C45.5111 280.82 46.0511 280.61 46.6511 280.61H73.1111C78.5111 280.61 82.8011 281.48 85.9811 283.22C89.1611 284.9 91.4711 287.45 92.9111 290.87C94.3511 294.23 95.0711 298.37 95.0711 303.29C95.0711 307.37 94.4111 311 93.0911 314.18C91.8311 317.36 90.0911 320.15 87.8711 322.55C85.6511 324.89 83.1311 326.84 80.3111 328.4C77.5511 329.96 74.6711 331.16 71.6711 332L67.9811 333.08ZM106.057 310.76C105.397 310.76 104.857 310.55 104.437 310.13C104.017 309.65 103.807 309.11 103.807 308.51V282.86C103.807 282.2 104.017 281.66 104.437 281.24C104.857 280.82 105.397 280.61 106.057 280.61H116.677C117.337 280.61 117.877 280.82 118.297 281.24C118.717 281.66 118.927 282.2 118.927 282.86V308.51C118.927 309.11 118.717 309.65 118.297 310.13C117.877 310.55 117.337 310.76 116.677 310.76H106.057ZM141.627 333.08C141.027 333.26 140.457 333.08 139.917 332.54C139.437 332 139.197 331.43 139.197 330.83V322.19C139.197 321.59 139.407 321.02 139.827 320.48C140.247 319.94 140.787 319.55 141.447 319.31L144.327 318.14C146.007 317.42 147.537 316.52 148.917 315.44C150.357 314.3 151.497 312.8 152.337 310.94C153.177 309.08 153.597 306.65 153.597 303.65C153.597 301.07 153.297 299 152.697 297.44C152.097 295.88 151.077 294.74 149.637 294.02C148.257 293.3 146.277 292.94 143.697 292.94H141.627C141.027 292.94 140.487 292.73 140.007 292.31C139.587 291.89 139.377 291.35 139.377 290.69V282.77C139.377 282.17 139.587 281.66 140.007 281.24C140.487 280.82 141.027 280.61 141.627 280.61H146.667C152.067 280.61 156.357 281.48 159.537 283.22C162.777 284.9 165.087 287.45 166.467 290.87C167.907 294.23 168.627 298.37 168.627 303.29C168.627 307.37 167.967 311 166.647 314.18C165.387 317.36 163.647 320.15 161.427 322.55C159.207 324.89 156.717 326.84 153.957 328.4C151.197 329.96 148.287 331.16 145.227 332L141.627 333.08ZM144.777 292.94H129.567C128.967 292.94 128.427 292.73 127.947 292.31C127.527 291.89 127.317 291.35 127.317 290.69V270.35C127.317 269.69 127.527 269.15 127.947 268.73C128.427 268.31 128.967 268.1 129.567 268.1H138.747C139.407 268.1 139.947 268.31 140.367 268.73C140.787 269.15 140.997 269.69 140.997 270.35V280.61H144.867L144.777 292.94ZM179.981 349.19C179.321 349.19 178.781 348.98 178.361 348.56C177.941 348.14 177.731 347.6 177.731 346.94V303.11C177.731 302.51 177.941 302 178.361 301.58C178.781 301.1 179.321 300.86 179.981 300.86H189.701C190.361 300.86 190.901 301.1 191.321 301.58C191.741 302 191.951 302.51 191.951 303.11V346.94C191.951 347.6 191.741 348.14 191.321 348.56C190.901 348.98 190.361 349.19 189.701 349.19H179.981ZM201.311 333.08C200.771 333.26 200.231 333.08 199.691 332.54C199.211 332 198.971 331.43 198.971 330.83V322.19C198.971 321.59 199.181 321.02 199.601 320.48C200.021 319.94 200.561 319.55 201.221 319.31L204.101 318.14C205.781 317.42 207.311 316.52 208.691 315.44C210.131 314.3 211.271 312.8 212.111 310.94C212.951 309.08 213.371 306.65 213.371 303.65C213.371 301.07 213.071 299 212.471 297.44C211.871 295.88 210.851 294.74 209.411 294.02C207.971 293.3 205.991 292.94 203.471 292.94H179.981C179.381 292.94 178.841 292.73 178.361 292.31C177.941 291.89 177.731 291.35 177.731 290.69V282.77C177.731 282.17 177.941 281.66 178.361 281.24C178.841 280.82 179.381 280.61 179.981 280.61H206.441C211.841 280.61 216.131 281.48 219.311 283.22C222.491 284.9 224.801 287.45 226.241 290.87C227.681 294.23 228.401 298.37 228.401 303.29C228.401 307.37 227.741 311 226.421 314.18C225.161 317.36 223.421 320.15 221.201 322.55C218.981 324.89 216.461 326.84 213.641 328.4C210.881 329.96 208.001 331.16 205.001 332L201.311 333.08ZM237.947 332C237.347 332 236.807 331.79 236.327 331.37C235.907 330.95 235.697 330.41 235.697 329.75V322.46C235.697 321.8 235.907 321.26 236.327 320.84C236.807 320.42 237.347 320.21 237.947 320.21H260.807V303.11C260.807 299.69 259.937 297.08 258.197 295.28C256.517 293.42 253.847 292.49 250.187 292.49H238.847C238.247 292.49 237.707 292.28 237.227 291.86C236.807 291.38 236.597 290.84 236.597 290.24V282.86C236.597 282.2 236.807 281.66 237.227 281.24C237.707 280.82 238.247 280.61 238.847 280.61H250.637C256.037 280.61 260.597 281.39 264.317 282.95C268.097 284.45 270.977 286.85 272.957 290.15C274.937 293.39 275.927 297.71 275.927 303.11V320.21H279.077C279.737 320.21 280.277 320.42 280.697 320.84C281.117 321.26 281.327 321.8 281.327 322.46V329.75C281.327 330.41 281.117 330.95 280.697 331.37C280.277 331.79 279.737 332 279.077 332H237.947ZM332.786 332C332.126 332 331.556 331.79 331.076 331.37C330.656 330.95 330.446 330.44 330.446 329.84V303.11C330.446 299.63 329.606 296.99 327.926 295.19C326.246 293.33 323.546 292.4 319.826 292.4H306.326C305.726 292.4 305.186 292.19 304.706 291.77C304.286 291.35 304.076 290.81 304.076 290.15V282.86C304.076 282.2 304.286 281.66 304.706 281.24C305.186 280.82 305.726 280.61 306.326 280.61H320.366C325.766 280.61 330.296 281.33 333.956 282.77C337.616 284.21 340.376 286.55 342.236 289.79C344.156 292.97 345.116 297.23 345.116 302.57V329.75C345.116 330.41 344.876 330.95 344.396 331.37C343.976 331.79 343.436 332 342.776 332H332.786ZM357.696 332C357.036 332 356.496 331.79 356.076 331.37C355.656 330.95 355.446 330.41 355.446 329.75V282.86C355.446 282.2 355.656 281.66 356.076 281.24C356.496 280.82 357.036 280.61 357.696 280.61H368.316C368.976 280.61 369.516 280.82 369.936 281.24C370.356 281.66 370.566 282.2 370.566 282.86V329.75C370.566 330.41 370.356 330.95 369.936 331.37C369.516 331.79 368.976 332 368.316 332H357.696ZM383.62 332C382.96 332 382.42 331.79 382 331.37C381.58 330.95 381.37 330.41 381.37 329.75V322.19C381.37 321.53 381.58 320.99 382 320.57C382.42 320.15 382.96 319.94 383.62 319.94H404.95L378.67 283.85C378.55 283.61 378.43 283.37 378.31 283.13C378.19 282.89 378.13 282.65 378.13 282.41C378.13 281.87 378.31 281.45 378.67 281.15C379.09 280.79 379.57 280.61 380.11 280.61H390.64C391.48 280.61 392.11 280.82 392.53 281.24C392.95 281.6 393.28 281.93 393.52 282.23L420.79 319.85C421.09 320.27 421.36 320.72 421.6 321.2C421.9 321.62 422.05 322.16 422.05 322.82V329.75C422.05 330.41 421.81 330.95 421.33 331.37C420.91 331.79 420.4 332 419.8 332H383.62ZM412.33 310.76L405.04 300.95C407.2 299.63 408.7 297.89 409.54 295.73C410.38 293.57 410.8 291.08 410.8 288.26V282.95C410.8 282.23 411.01 281.66 411.43 281.24C411.91 280.82 412.45 280.61 413.05 280.61H422.05C422.71 280.61 423.25 280.85 423.67 281.33C424.09 281.81 424.3 282.35 424.3 282.95V290.87C424.3 295.07 423.28 298.91 421.24 302.39C419.2 305.87 416.23 308.66 412.33 310.76ZM436.086 310.76C435.426 310.76 434.886 310.55 434.466 310.13C434.046 309.65 433.836 309.11 433.836 308.51V282.86C433.836 282.2 434.046 281.66 434.466 281.24C434.886 280.82 435.426 280.61 436.086 280.61H446.706C447.366 280.61 447.906 280.82 448.326 281.24C448.746 281.66 448.956 282.2 448.956 282.86V308.51C448.956 309.11 448.746 309.65 448.326 310.13C447.906 310.55 447.366 310.76 446.706 310.76H436.086ZM461.486 310.76C460.826 310.76 460.286 310.55 459.866 310.13C459.446 309.65 459.236 309.11 459.236 308.51V282.86C459.236 282.2 459.446 281.66 459.866 281.24C460.286 280.82 460.826 280.61 461.486 280.61H472.106C472.766 280.61 473.306 280.82 473.726 281.24C474.146 281.66 474.356 282.2 474.356 282.86V308.51C474.356 309.11 474.146 309.65 473.726 310.13C473.306 310.55 472.766 310.76 472.106 310.76H461.486ZM508.207 292.4C507.547 292.4 507.007 292.19 506.587 291.77C506.167 291.35 505.957 290.81 505.957 290.15V282.86C505.957 282.2 506.167 281.66 506.587 281.24C507.007 280.82 507.547 280.61 508.207 280.61H532.867C538.267 280.61 542.797 281.39 546.457 282.95C550.117 284.45 552.877 286.82 554.737 290.06C556.597 293.3 557.527 297.5 557.527 302.66V329.75C557.527 330.41 557.317 330.95 556.897 331.37C556.477 331.79 555.937 332 555.277 332H545.197C544.537 332 543.997 331.79 543.577 331.37C543.157 330.95 542.947 330.44 542.947 329.84V303.11C542.947 299.63 542.077 296.99 540.337 295.19C538.657 293.33 535.987 292.4 532.327 292.4H508.207ZM519.367 286.19H523.417C525.037 286.19 526.147 286.52 526.747 287.18C527.407 287.84 527.587 288.53 527.287 289.25C526.747 291.17 526.297 293 525.937 294.74C525.577 296.42 525.307 298.16 525.127 299.96C525.007 301.76 524.947 303.77 524.947 305.99L525.667 329.75C525.667 330.41 525.427 330.95 524.947 331.37C524.527 331.79 524.017 332 523.417 332L504.787 331.91C504.187 331.91 503.647 331.7 503.167 331.28C502.747 330.86 502.537 330.32 502.537 329.66V323C502.537 322.34 502.747 321.8 503.167 321.38C503.647 320.9 504.187 320.66 504.787 320.66L512.077 320.75V306.17C512.077 304.19 512.137 302.33 512.257 300.59C512.377 298.79 512.587 296.96 512.887 295.1C513.247 293.24 513.757 291.29 514.417 289.25C514.717 288.41 515.197 287.69 515.857 287.09C516.577 286.49 517.747 286.19 519.367 286.19ZM569.856 310.76C569.196 310.76 568.656 310.55 568.236 310.13C567.816 309.65 567.606 309.11 567.606 308.51V282.86C567.606 282.2 567.816 281.66 568.236 281.24C568.656 280.82 569.196 280.61 569.856 280.61H580.476C581.136 280.61 581.676 280.82 582.096 281.24C582.516 281.66 582.726 282.2 582.726 282.86V308.51C582.726 309.11 582.516 309.65 582.096 310.13C581.676 310.55 581.136 310.76 580.476 310.76H569.856ZM593.546 332C592.946 332 592.406 331.79 591.926 331.37C591.506 330.95 591.296 330.41 591.296 329.75V322.46C591.296 321.8 591.506 321.26 591.926 320.84C592.406 320.42 592.946 320.21 593.546 320.21H622.436V329.93C622.436 330.53 622.226 331.04 621.806 331.46C621.386 331.82 620.846 332 620.186 332H593.546ZM611.456 332C610.796 332 610.256 331.79 609.836 331.37C609.416 330.95 609.206 330.41 609.206 329.75L607.856 302.03C607.796 299.81 607.556 297.95 607.136 296.45C606.716 294.89 605.996 293.72 604.976 292.94C603.956 292.16 602.426 291.77 600.386 291.77H595.886C595.286 291.77 594.746 291.56 594.266 291.14C593.846 290.66 593.636 290.09 593.636 289.43V282.32C593.636 281.66 593.846 281.12 594.266 280.7C594.746 280.28 595.286 280.07 595.886 280.07H600.746C604.646 280.07 607.976 280.52 610.736 281.42C613.496 282.26 615.746 283.61 617.486 285.47C619.286 287.27 620.606 289.58 621.446 292.4C622.346 295.16 622.886 298.43 623.066 302.21L624.326 329.75C624.386 330.41 624.176 330.95 623.696 331.37C623.216 331.79 622.676 332 622.076 332H611.456ZM634.805 332C634.145 332 633.575 331.79 633.095 331.37C632.675 330.95 632.465 330.41 632.465 329.75V321.92C632.465 321.26 632.675 320.72 633.095 320.3C633.575 319.88 634.145 319.67 634.805 319.67H647.855C651.515 319.67 654.245 318.74 656.045 316.88C657.845 315.02 658.835 312.38 659.015 308.96C659.075 307.88 659.105 306.98 659.105 306.26C659.105 305.54 659.075 304.67 659.015 303.65C658.835 300.17 657.845 297.53 656.045 295.73C654.245 293.87 651.515 292.94 647.855 292.94H634.805C634.145 292.94 633.575 292.73 633.095 292.31C632.675 291.89 632.465 291.35 632.465 290.69V282.86C632.465 282.2 632.675 281.66 633.095 281.24C633.575 280.82 634.145 280.61 634.805 280.61H648.305C654.065 280.61 658.715 281.57 662.255 283.49C665.795 285.35 668.405 288.02 670.085 291.5C671.825 294.92 672.815 298.97 673.055 303.65C673.115 304.67 673.145 305.54 673.145 306.26C673.145 306.98 673.115 307.88 673.055 308.96C672.815 313.58 671.825 317.63 670.085 321.11C668.405 324.59 665.795 327.29 662.255 329.21C658.715 331.07 654.065 332 648.305 332H634.805ZM684.473 332C683.813 332 683.273 331.79 682.853 331.37C682.433 330.95 682.223 330.41 682.223 329.75V282.86C682.223 282.2 682.433 281.66 682.853 281.24C683.273 280.82 683.813 280.61 684.473 280.61H695.093C695.753 280.61 696.293 280.82 696.713 281.24C697.133 281.66 697.343 282.2 697.343 282.86V329.75C697.343 330.41 697.133 330.95 696.713 331.37C696.293 331.79 695.753 332 695.093 332H684.473ZM712.377 292.4C711.717 292.4 711.177 292.19 710.757 291.77C710.337 291.35 710.127 290.81 710.127 290.15V282.86C710.127 282.2 710.337 281.66 710.757 281.24C711.177 280.82 711.717 280.61 712.377 280.61H737.037C742.437 280.61 746.967 281.39 750.627 282.95C754.287 284.45 757.047 286.82 758.907 290.06C760.767 293.3 761.697 297.5 761.697 302.66V329.75C761.697 330.41 761.487 330.95 761.067 331.37C760.647 331.79 760.107 332 759.447 332H749.367C748.707 332 748.167 331.79 747.747 331.37C747.327 330.95 747.117 330.44 747.117 329.84V303.11C747.117 299.63 746.247 296.99 744.507 295.19C742.827 293.33 740.157 292.4 736.497 292.4H712.377ZM723.537 286.19H727.587C729.207 286.19 730.317 286.52 730.917 287.18C731.577 287.84 731.757 288.53 731.457 289.25C730.917 291.17 730.467 293 730.107 294.74C729.747 296.42 729.477 298.16 729.297 299.96C729.177 301.76 729.117 303.77 729.117 305.99L729.837 329.75C729.837 330.41 729.597 330.95 729.117 331.37C728.697 331.79 728.187 332 727.587 332L708.957 331.91C708.357 331.91 707.817 331.7 707.337 331.28C706.917 330.86 706.707 330.32 706.707 329.66V323C706.707 322.34 706.917 321.8 707.337 321.38C707.817 320.9 708.357 320.66 708.957 320.66L716.247 320.75V306.17C716.247 304.19 716.307 302.33 716.427 300.59C716.547 298.79 716.757 296.96 717.057 295.1C717.417 293.24 717.927 291.29 718.587 289.25C718.887 288.41 719.367 287.69 720.027 287.09C720.747 286.49 721.917 286.19 723.537 286.19ZM783.053 333.08C782.453 333.26 781.883 333.08 781.343 332.54C780.863 332 780.623 331.43 780.623 330.83V322.19C780.623 321.59 780.833 321.02 781.253 320.48C781.673 319.94 782.213 319.55 782.873 319.31L785.753 318.14C787.433 317.42 788.963 316.52 790.343 315.44C791.783 314.3 792.923 312.8 793.763 310.94C794.603 309.08 795.023 306.65 795.023 303.65C795.023 301.07 794.723 299 794.123 297.44C793.523 295.88 792.503 294.74 791.063 294.02C789.683 293.3 787.703 292.94 785.123 292.94H783.053C782.453 292.94 781.913 292.73 781.433 292.31C781.013 291.89 780.803 291.35 780.803 290.69V282.77C780.803 282.17 781.013 281.66 781.433 281.24C781.913 280.82 782.453 280.61 783.053 280.61H788.093C793.493 280.61 797.783 281.48 800.963 283.22C804.203 284.9 806.513 287.45 807.893 290.87C809.333 294.23 810.053 298.37 810.053 303.29C810.053 307.37 809.393 311 808.073 314.18C806.813 317.36 805.073 320.15 802.853 322.55C800.633 324.89 798.143 326.84 795.383 328.4C792.623 329.96 789.713 331.16 786.653 332L783.053 333.08ZM786.203 292.94H770.993C770.393 292.94 769.853 292.73 769.373 292.31C768.953 291.89 768.743 291.35 768.743 290.69V270.35C768.743 269.69 768.953 269.15 769.373 268.73C769.853 268.31 770.393 268.1 770.993 268.1H780.173C780.833 268.1 781.373 268.31 781.793 268.73C782.213 269.15 782.423 269.69 782.423 270.35V280.61H786.293L786.203 292.94ZM863.294 332C862.634 332 862.064 331.79 861.584 331.37C861.164 330.95 860.954 330.44 860.954 329.84V303.11C860.954 299.63 860.114 296.99 858.434 295.19C856.754 293.33 854.054 292.4 850.334 292.4H836.834C836.234 292.4 835.694 292.19 835.214 291.77C834.794 291.35 834.584 290.81 834.584 290.15V282.86C834.584 282.2 834.794 281.66 835.214 281.24C835.694 280.82 836.234 280.61 836.834 280.61H850.874C856.274 280.61 860.804 281.33 864.464 282.77C868.124 284.21 870.884 286.55 872.744 289.79C874.664 292.97 875.624 297.23 875.624 302.57V329.75C875.624 330.41 875.384 330.95 874.904 331.37C874.484 331.79 873.944 332 873.284 332H863.294ZM887.844 310.76C887.184 310.76 886.644 310.55 886.224 310.13C885.804 309.65 885.594 309.11 885.594 308.51V282.86C885.594 282.2 885.804 281.66 886.224 281.24C886.644 280.82 887.184 280.61 887.844 280.61H898.464C899.124 280.61 899.664 280.82 900.084 281.24C900.504 281.66 900.714 282.2 900.714 282.86V308.51C900.714 309.11 900.504 309.65 900.084 310.13C899.664 310.55 899.124 310.76 898.464 310.76H887.844ZM913.604 332C912.944 332 912.404 331.79 911.984 331.37C911.564 330.95 911.354 330.41 911.354 329.75V282.86C911.354 282.2 911.564 281.66 911.984 281.24C912.404 280.82 912.944 280.61 913.604 280.61H934.574C940.034 280.61 944.594 281.36 948.254 282.86C951.914 284.36 954.674 286.76 956.534 290.06C958.394 293.36 959.324 297.71 959.324 303.11V329.75C959.324 330.41 959.114 330.95 958.694 331.37C958.274 331.79 957.734 332 957.074 332H946.994C946.334 332 945.794 331.79 945.374 331.37C944.954 330.95 944.744 330.44 944.744 329.84V303.11C944.744 299.63 943.874 296.99 942.134 295.19C940.454 293.33 937.784 292.4 934.124 292.4H925.934V329.75C925.934 330.41 925.724 330.95 925.304 331.37C924.884 331.79 924.344 332 923.684 332H913.604ZM997.072 292.94H970.882C970.222 292.94 969.682 292.73 969.262 292.31C968.842 291.89 968.632 291.35 968.632 290.69V282.86C968.632 282.2 968.842 281.66 969.262 281.24C969.682 280.82 970.222 280.61 970.882 280.61H999.232C1003.25 280.61 1006.82 281.39 1009.94 282.95C1013.12 284.51 1015.61 286.91 1017.41 290.15C1019.21 293.39 1020.11 297.53 1020.11 302.57V329.75C1020.11 330.41 1019.9 330.95 1019.48 331.37C1019.06 331.79 1018.52 332 1017.86 332H993.472C992.872 332 992.332 331.79 991.852 331.37C991.432 330.95 991.222 330.41 991.222 329.75V322.46C991.222 321.8 991.432 321.26 991.852 320.84C992.332 320.42 992.872 320.21 993.472 320.21H1005.53V303.29C1005.53 301.07 1005.17 299.18 1004.45 297.62C1003.73 296.06 1002.71 294.89 1001.39 294.11C1000.13 293.33 998.692 292.94 997.072 292.94ZM970.162 332C969.562 332 969.022 331.79 968.542 331.37C968.062 330.89 967.882 330.35 968.002 329.75L977.542 289.61C977.662 289.01 977.932 288.5 978.352 288.08C978.772 287.66 979.282 287.48 979.882 287.54L988.342 287.63C989.002 287.63 989.572 287.9 990.052 288.44C990.532 288.98 990.682 289.58 990.502 290.24L982.312 329.75C982.252 330.35 981.982 330.89 981.502 331.37C981.082 331.79 980.542 332 979.882 332H970.162ZM1053.74 292.4C1053.08 292.4 1052.54 292.19 1052.12 291.77C1051.7 291.35 1051.49 290.81 1051.49 290.15V282.86C1051.49 282.2 1051.7 281.66 1052.12 281.24C1052.54 280.82 1053.08 280.61 1053.74 280.61H1078.4C1083.8 280.61 1088.33 281.39 1091.99 282.95C1095.65 284.45 1098.41 286.82 1100.27 290.06C1102.13 293.3 1103.06 297.5 1103.06 302.66V329.75C1103.06 330.41 1102.85 330.95 1102.43 331.37C1102.01 331.79 1101.47 332 1100.81 332H1090.73C1090.07 332 1089.53 331.79 1089.11 331.37C1088.69 330.95 1088.48 330.44 1088.48 329.84V303.11C1088.48 299.63 1087.61 296.99 1085.87 295.19C1084.19 293.33 1081.52 292.4 1077.86 292.4H1053.74ZM1064.9 286.19H1068.95C1070.57 286.19 1071.68 286.52 1072.28 287.18C1072.94 287.84 1073.12 288.53 1072.82 289.25C1072.28 291.17 1071.83 293 1071.47 294.74C1071.11 296.42 1070.84 298.16 1070.66 299.96C1070.54 301.76 1070.48 303.77 1070.48 305.99L1071.2 329.75C1071.2 330.41 1070.96 330.95 1070.48 331.37C1070.06 331.79 1069.55 332 1068.95 332L1050.32 331.91C1049.72 331.91 1049.18 331.7 1048.7 331.28C1048.28 330.86 1048.07 330.32 1048.07 329.66V323C1048.07 322.34 1048.28 321.8 1048.7 321.38C1049.18 320.9 1049.72 320.66 1050.32 320.66L1057.61 320.75V306.17C1057.61 304.19 1057.67 302.33 1057.79 300.59C1057.91 298.79 1058.12 296.96 1058.42 295.1C1058.78 293.24 1059.29 291.29 1059.95 289.25C1060.25 288.41 1060.73 287.69 1061.39 287.09C1062.11 286.49 1063.28 286.19 1064.9 286.19ZM1113.77 337.04C1113.11 337.16 1112.51 337.01 1111.97 336.59C1111.49 336.17 1111.25 335.66 1111.25 335.06V327.59C1111.25 326.99 1111.43 326.48 1111.79 326.06C1112.21 325.58 1112.69 325.28 1113.23 325.16L1133.03 320.21C1136.33 319.37 1138.85 318.29 1140.59 316.97C1142.39 315.65 1143.59 314 1144.19 312.02C1144.85 310.04 1145.18 307.7 1145.18 305V282.77C1145.18 282.17 1145.39 281.66 1145.81 281.24C1146.29 280.82 1146.83 280.61 1147.43 280.61H1157.51C1158.17 280.61 1158.71 280.82 1159.13 281.24C1159.55 281.66 1159.76 282.2 1159.76 282.86V309.32C1159.76 313.28 1158.83 316.79 1156.97 319.85C1155.17 322.91 1152.53 325.49 1149.05 327.59C1145.57 329.63 1141.4 331.13 1136.54 332.09L1113.77 337.04ZM1125.38 329.84L1112.69 284.21C1112.57 283.73 1112.45 283.37 1112.33 283.13C1112.27 282.89 1112.24 282.65 1112.24 282.41C1112.24 281.93 1112.42 281.51 1112.78 281.15C1113.14 280.79 1113.56 280.61 1114.04 280.61H1125.11C1126.25 280.61 1126.94 281.06 1127.18 281.96L1138.43 327.77L1125.38 329.84ZM1172.26 332C1171.6 332 1171.06 331.79 1170.64 331.37C1170.22 330.95 1170.01 330.41 1170.01 329.75V322.19C1170.01 321.53 1170.22 320.99 1170.64 320.57C1171.06 320.15 1171.6 319.94 1172.26 319.94H1193.59L1167.31 283.85C1167.19 283.61 1167.07 283.37 1166.95 283.13C1166.83 282.89 1166.77 282.65 1166.77 282.41C1166.77 281.87 1166.95 281.45 1167.31 281.15C1167.73 280.79 1168.21 280.61 1168.75 280.61H1179.28C1180.12 280.61 1180.75 280.82 1181.17 281.24C1181.59 281.6 1181.92 281.93 1182.16 282.23L1209.43 319.85C1209.73 320.27 1210 320.72 1210.24 321.2C1210.54 321.62 1210.69 322.16 1210.69 322.82V329.75C1210.69 330.41 1210.45 330.95 1209.97 331.37C1209.55 331.79 1209.04 332 1208.44 332H1172.26ZM1200.97 310.76L1193.68 300.95C1195.84 299.63 1197.34 297.89 1198.18 295.73C1199.02 293.57 1199.44 291.08 1199.44 288.26V282.95C1199.44 282.23 1199.65 281.66 1200.07 281.24C1200.55 280.82 1201.09 280.61 1201.69 280.61H1210.69C1211.35 280.61 1211.89 280.85 1212.31 281.33C1212.73 281.81 1212.94 282.35 1212.94 282.95V290.87C1212.94 295.07 1211.92 298.91 1209.88 302.39C1207.84 305.87 1204.87 308.66 1200.97 310.76ZM1258.21 332C1257.55 332 1256.98 331.79 1256.5 331.37C1256.08 330.95 1255.87 330.44 1255.87 329.84V303.11C1255.87 299.63 1255.03 296.99 1253.35 295.19C1251.67 293.33 1248.97 292.4 1245.25 292.4H1225.09C1224.43 292.4 1223.89 292.19 1223.47 291.77C1223.05 291.35 1222.84 290.81 1222.84 290.15V282.86C1222.84 282.2 1223.05 281.66 1223.47 281.24C1223.89 280.82 1224.43 280.61 1225.09 280.61H1245.7C1253.8 280.61 1259.95 282.44 1264.15 286.1C1268.41 289.7 1270.54 295.37 1270.54 303.11V329.75C1270.54 330.41 1270.3 330.95 1269.82 331.37C1269.4 331.79 1268.86 332 1268.2 332H1258.21ZM1225.09 332C1224.43 332 1223.89 331.79 1223.47 331.37C1223.05 330.95 1222.84 330.41 1222.84 329.75V303.11C1222.84 302.51 1223.05 302 1223.47 301.58C1223.89 301.1 1224.43 300.86 1225.09 300.86H1235.17C1235.83 300.86 1236.37 301.1 1236.79 301.58C1237.21 302 1237.42 302.51 1237.42 303.11V329.75C1237.42 330.41 1237.21 330.95 1236.79 331.37C1236.37 331.79 1235.83 332 1235.17 332H1225.09ZM1308.12 292.94H1281.93C1281.27 292.94 1280.73 292.73 1280.31 292.31C1279.89 291.89 1279.68 291.35 1279.68 290.69V282.86C1279.68 282.2 1279.89 281.66 1280.31 281.24C1280.73 280.82 1281.27 280.61 1281.93 280.61H1310.28C1314.3 280.61 1317.87 281.39 1320.99 282.95C1324.17 284.51 1326.66 286.91 1328.46 290.15C1330.26 293.39 1331.16 297.53 1331.16 302.57V329.75C1331.16 330.41 1330.95 330.95 1330.53 331.37C1330.11 331.79 1329.57 332 1328.91 332H1304.52C1303.92 332 1303.38 331.79 1302.9 331.37C1302.48 330.95 1302.27 330.41 1302.27 329.75V322.46C1302.27 321.8 1302.48 321.26 1302.9 320.84C1303.38 320.42 1303.92 320.21 1304.52 320.21H1316.58V303.29C1316.58 301.07 1316.22 299.18 1315.5 297.62C1314.78 296.06 1313.76 294.89 1312.44 294.11C1311.18 293.33 1309.74 292.94 1308.12 292.94ZM1281.21 332C1280.61 332 1280.07 331.79 1279.59 331.37C1279.11 330.89 1278.93 330.35 1279.05 329.75L1288.59 289.61C1288.71 289.01 1288.98 288.5 1289.4 288.08C1289.82 287.66 1290.33 287.48 1290.93 287.54L1299.39 287.63C1300.05 287.63 1300.62 287.9 1301.1 288.44C1301.58 288.98 1301.73 289.58 1301.55 290.24L1293.36 329.75C1293.3 330.35 1293.03 330.89 1292.55 331.37C1292.13 331.79 1291.59 332 1290.93 332H1281.21Z" fill="#200060"/>
<path d="M1177.12 215.107C1164.74 209.893 1154.88 203.929 1147.52 197.223C1136.74 187.642 1128.72 176.144 1123.44 162.731C1118.16 149.318 1115.52 134.576 1115.52 118.5C1115.52 85.5008 1125.73 58.8347 1146.16 38.4997C1166.59 18.1684 1193.7 8 1227.52 8C1252.37 8 1273.15 12.2064 1289.84 20.6155C1306.53 29.0265 1319.87 42.0408 1329.84 59.6585C1339.81 77.2781 1344.8 96.7837 1344.8 118.181C1344.8 139.685 1339.81 158.873 1329.84 175.746C1319.87 192.618 1304.48 205.634 1283.68 214.787L1336.48 211.115H1348V248H1245.28V209.199C1255.63 204.195 1263.78 198.606 1269.76 192.431C1277.86 183.916 1283.97 173.565 1288.08 161.374C1292.18 149.186 1294.24 136.332 1294.24 122.81C1294.24 96.5191 1288.13 76.6388 1275.92 63.1697C1263.7 49.7044 1248.1 42.9708 1229.12 42.9708C1210.98 42.9708 1195.81 49.8647 1183.6 63.6487C1171.38 77.4365 1165.28 96.8899 1165.28 122.013C1165.28 136.49 1167.6 149.957 1172.24 162.411C1176.88 174.868 1183.52 185.405 1192.16 194.029C1197.7 199.566 1205.39 204.622 1215.2 209.199V248H1112V211.274H1127.68L1177.12 215.107Z" fill="#6A23F7"/>
</svg>
