<svg width="538" height="209" viewBox="0 0 538 209" fill="none" xmlns="http://www.w3.org/2000/svg">
<path d="M40.1002 168.65C39.0002 168.65 38.1002 168.3 37.4002 167.6C36.7002 166.9 36.3502 166 36.3502 164.9V91.85C36.3502 90.85 36.7002 90 37.4002 89.3C38.1002 88.5 39.0002 88.1 40.1002 88.1H56.3002C57.4002 88.1 58.3002 88.5 59.0002 89.3C59.7002 90 60.0502 90.85 60.0502 91.85V164.9C60.0502 166 59.7002 166.9 59.0002 167.6C58.3002 168.3 57.4002 168.65 56.3002 168.65H40.1002ZM75.6502 141.8C74.7502 142.1 73.8502 141.8 72.9502 140.9C72.1502 140 71.7502 139.05 71.7502 138.05V123.65C71.7502 122.65 72.1002 121.7 72.8002 120.8C73.5002 119.9 74.4002 119.25 75.5002 118.85L80.3002 116.9C83.1002 115.7 85.6502 114.2 87.9502 112.4C90.3502 110.5 92.2502 108 93.6502 104.9C95.0502 101.8 95.7502 97.75 95.7502 92.75C95.7502 88.45 95.2502 85 94.2502 82.4C93.2502 79.8 91.5502 77.9 89.1502 76.7C86.7502 75.5 83.4502 74.9 79.2502 74.9H40.1002C39.1002 74.9 38.2002 74.55 37.4002 73.85C36.7002 73.15 36.3502 72.25 36.3502 71.15V57.95C36.3502 56.95 36.7002 56.1 37.4002 55.4C38.2002 54.7 39.1002 54.35 40.1002 54.35H84.2002C93.2002 54.35 100.35 55.8 105.65 58.7C110.95 61.5 114.8 65.75 117.2 71.45C119.6 77.05 120.8 83.95 120.8 92.15C120.8 98.95 119.7 105 117.5 110.3C115.4 115.6 112.5 120.25 108.8 124.25C105.1 128.15 100.9 131.4 96.2002 134C91.6002 136.6 86.8002 138.6 81.8002 140L75.6502 141.8ZM133.11 104.6C132.01 104.6 131.11 104.25 130.41 103.55C129.71 102.75 129.36 101.85 129.36 100.85V58.1C129.36 57 129.71 56.1 130.41 55.4C131.11 54.7 132.01 54.35 133.11 54.35H150.81C151.91 54.35 152.81 54.7 153.51 55.4C154.21 56.1 154.56 57 154.56 58.1V100.85C154.56 101.85 154.21 102.75 153.51 103.55C152.81 104.25 151.91 104.6 150.81 104.6H133.11ZM186.394 141.8C185.394 142.1 184.444 141.8 183.544 140.9C182.744 140 182.344 139.05 182.344 138.05V123.65C182.344 122.65 182.694 121.7 183.394 120.8C184.094 119.9 184.994 119.25 186.094 118.85L190.894 116.9C193.694 115.7 196.244 114.2 198.544 112.4C200.944 110.5 202.844 108 204.244 104.9C205.644 101.8 206.344 97.75 206.344 92.75C206.344 88.45 205.844 85 204.844 82.4C203.844 79.8 202.144 77.9 199.744 76.7C197.444 75.5 194.144 74.9 189.844 74.9H186.394C185.394 74.9 184.494 74.55 183.694 73.85C182.994 73.15 182.644 72.25 182.644 71.15V57.95C182.644 56.95 182.994 56.1 183.694 55.4C184.494 54.7 185.394 54.35 186.394 54.35H194.794C203.794 54.35 210.944 55.8 216.244 58.7C221.644 61.5 225.494 65.75 227.794 71.45C230.194 77.05 231.394 83.95 231.394 92.15C231.394 98.95 230.294 105 228.094 110.3C225.994 115.6 223.094 120.25 219.394 124.25C215.694 128.15 211.544 131.4 206.944 134C202.344 136.6 197.494 138.6 192.394 140L186.394 141.8ZM191.644 74.9H166.294C165.294 74.9 164.394 74.55 163.594 73.85C162.894 73.15 162.544 72.25 162.544 71.15V37.25C162.544 36.15 162.894 35.25 163.594 34.55C164.394 33.85 165.294 33.5 166.294 33.5H181.594C182.694 33.5 183.594 33.85 184.294 34.55C184.994 35.25 185.344 36.15 185.344 37.25V54.35H191.794L191.644 74.9ZM299.067 140C297.467 140 296.267 139.6 295.467 138.8C294.667 138 294.117 137.4 293.817 137L239.817 59.75C239.317 59.05 239.067 58.3 239.067 57.5C239.067 56.7 239.367 56 239.967 55.4C240.667 54.7 241.467 54.35 242.367 54.35H259.017C260.617 54.35 261.817 54.75 262.617 55.55C263.417 56.35 264.017 57 264.417 57.5L318.867 134.6C319.267 135.1 319.467 135.55 319.467 135.95C319.567 136.25 319.617 136.55 319.617 136.85C319.617 137.65 319.317 138.4 318.717 139.1C318.117 139.7 317.367 140 316.467 140H299.067ZM242.217 140C241.217 140 240.317 139.6 239.517 138.8C238.817 138 238.467 137.1 238.467 136.1V117.05C238.467 111.45 238.967 106.55 239.967 102.35C240.967 98.05 242.767 94.15 245.367 90.65C247.967 87.15 251.717 83.7 256.617 80.3L268.167 97.1C265.667 98.9 263.817 101 262.617 103.4C261.517 105.7 260.817 108.05 260.517 110.45C260.217 112.85 260.067 115 260.067 116.9V136.1C260.067 137.3 259.667 138.25 258.867 138.95C258.167 139.65 257.317 140 256.317 140H242.217ZM297.867 110.9L286.167 94.25C289.367 92.65 291.617 90.9 292.917 89C294.317 87 295.167 84.95 295.467 82.85C295.767 80.75 295.917 78.75 295.917 76.85V58.25C295.917 57.05 296.267 56.1 296.967 55.4C297.767 54.7 298.667 54.35 299.667 54.35H314.667C315.667 54.35 316.517 54.75 317.217 55.55C318.017 56.35 318.417 57.25 318.417 58.25V77.45C318.417 81.55 317.867 85.55 316.767 89.45C315.667 93.35 313.667 97.1 310.767 100.7C307.867 104.3 303.567 107.7 297.867 110.9ZM370.285 141.5C356.085 141.5 345.585 138.2 338.785 131.6C332.085 124.9 328.735 115.8 328.735 104.3V58.1C328.735 57 329.085 56.1 329.785 55.4C330.585 54.7 331.485 54.35 332.485 54.35H347.335C348.435 54.35 349.335 54.7 350.035 55.4C350.735 56.1 351.085 57 351.085 58.1V103.55C351.085 109.45 352.785 113.85 356.185 116.75C359.685 119.55 364.335 120.95 370.135 120.95C375.935 120.95 380.285 119.55 383.185 116.75C386.185 113.95 387.735 109.7 387.835 104C387.835 103 387.835 101.8 387.835 100.4C387.835 99 387.835 97.6 387.835 96.2C387.835 94.7 387.835 93.45 387.835 92.45C387.735 86.65 386.685 82.2 384.685 79.1C382.785 75.9 380.035 74.3 376.435 74.3C375.035 74.3 373.485 74.5 371.785 74.9C370.185 75.3 368.885 75.8 367.885 76.4C366.785 76.8 365.735 76.75 364.735 76.25C363.735 75.65 363.235 74.7 363.235 73.4V62.15C363.235 61.15 363.435 60.15 363.835 59.15C364.235 58.15 364.985 57.35 366.085 56.75C367.485 55.85 369.285 55.15 371.485 54.65C373.685 54.05 376.735 53.75 380.635 53.75C388.035 53.75 393.935 55.05 398.335 57.65C402.835 60.25 406.135 64.15 408.235 69.35C410.335 74.55 411.435 81.05 411.535 88.85C411.535 89.85 411.535 91.45 411.535 93.65C411.535 95.75 411.535 97.9 411.535 100.1C411.635 102.2 411.635 103.75 411.535 104.75C411.135 112.35 409.485 118.9 406.585 124.4C403.685 129.9 399.235 134.15 393.235 137.15C387.335 140.05 379.685 141.5 370.285 141.5ZM465.179 74.9H421.529C420.429 74.9 419.529 74.55 418.829 73.85C418.129 73.15 417.779 72.25 417.779 71.15V58.1C417.779 57 418.129 56.1 418.829 55.4C419.529 54.7 420.429 54.35 421.529 54.35H468.779C475.479 54.35 481.429 55.65 486.629 58.25C491.929 60.85 496.079 64.85 499.079 70.25C502.079 75.65 503.579 82.55 503.579 90.95V136.25C503.579 137.35 503.229 138.25 502.529 138.95C501.829 139.65 500.929 140 499.829 140H459.179C458.179 140 457.279 139.65 456.479 138.95C455.779 138.25 455.429 137.35 455.429 136.25V124.1C455.429 123 455.779 122.1 456.479 121.4C457.279 120.7 458.179 120.35 459.179 120.35H479.279V92.15C479.279 88.45 478.679 85.3 477.479 82.7C476.279 80.1 474.579 78.15 472.379 76.85C470.279 75.55 467.879 74.9 465.179 74.9ZM420.329 140C419.329 140 418.429 139.65 417.629 138.95C416.829 138.15 416.529 137.25 416.729 136.25L432.629 69.35C432.829 68.35 433.279 67.5 433.979 66.8C434.679 66.1 435.529 65.8 436.529 65.9L450.629 66.05C451.729 66.05 452.679 66.5 453.479 67.4C454.279 68.3 454.529 69.3 454.229 70.4L440.579 136.25C440.479 137.25 440.029 138.15 439.229 138.95C438.529 139.65 437.629 140 436.529 140H420.329Z" fill="#00FF9F"/>
<path d="M74.1933 173.73C73.9933 173.73 73.8233 173.66 73.6833 173.52C73.5433 173.38 73.4733 173.21 73.4733 173.01V157.83C73.4733 157.63 73.5433 157.46 73.6833 157.32C73.8233 157.18 73.9933 157.11 74.1933 157.11H76.4733C76.6933 157.11 76.8633 157.18 76.9833 157.32C77.1233 157.46 77.1933 157.63 77.1933 157.83V173.01C77.1933 173.21 77.1233 173.38 76.9833 173.52C76.8633 173.66 76.6933 173.73 76.4733 173.73H74.1933ZM80.6433 168.33C80.4433 168.37 80.2633 168.32 80.1033 168.18C79.9433 168.04 79.8633 167.87 79.8633 167.67V165.54C79.8633 165.34 79.9233 165.16 80.0433 165C80.1833 164.84 80.3633 164.72 80.5833 164.64L81.6333 164.22C82.3133 163.94 82.9333 163.59 83.4933 163.17C84.0533 162.73 84.4933 162.15 84.8133 161.43C85.1333 160.69 85.2933 159.74 85.2933 158.58C85.2933 157.5 85.1633 156.64 84.9033 156C84.6633 155.34 84.2333 154.87 83.6133 154.59C83.0133 154.31 82.1933 154.17 81.1533 154.17H74.1933C73.9933 154.17 73.8233 154.1 73.6833 153.96C73.5433 153.82 73.4733 153.65 73.4733 153.45V151.56C73.4733 151.36 73.5433 151.2 73.6833 151.08C73.8233 150.94 73.9933 150.87 74.1933 150.87H81.8433C83.6633 150.87 85.1033 151.15 86.1633 151.71C87.2433 152.25 88.0133 153.09 88.4733 154.23C88.9533 155.35 89.1933 156.79 89.1933 158.55C89.1933 159.93 88.9933 161.14 88.5933 162.18C88.1933 163.22 87.6433 164.12 86.9433 164.88C86.2433 165.62 85.4533 166.24 84.5733 166.74C83.7133 167.24 82.8133 167.64 81.8733 167.94L80.6433 168.33ZM93.6493 160.98C93.4493 160.98 93.2793 160.91 93.1393 160.77C92.9993 160.63 92.9293 160.46 92.9293 160.26V151.59C92.9293 151.39 92.9993 151.22 93.1393 151.08C93.2793 150.94 93.4493 150.87 93.6493 150.87H96.1393C96.3593 150.87 96.5293 150.94 96.6493 151.08C96.7893 151.22 96.8593 151.39 96.8593 151.59V160.26C96.8593 160.46 96.7893 160.63 96.6493 160.77C96.5293 160.91 96.3593 160.98 96.1393 160.98H93.6493ZM104.984 168.33C104.804 168.37 104.624 168.32 104.444 168.18C104.284 168.04 104.204 167.87 104.204 167.67V165.54C104.204 165.34 104.264 165.16 104.384 165C104.524 164.84 104.704 164.72 104.924 164.64L105.974 164.22C106.654 163.94 107.274 163.59 107.834 163.17C108.394 162.73 108.834 162.15 109.154 161.43C109.474 160.69 109.634 159.74 109.634 158.58C109.634 157.5 109.504 156.64 109.244 156C109.004 155.34 108.584 154.87 107.984 154.59C107.384 154.31 106.554 154.17 105.494 154.17H104.684C104.484 154.17 104.314 154.1 104.174 153.96C104.034 153.82 103.964 153.65 103.964 153.45V151.56C103.964 151.36 104.034 151.2 104.174 151.08C104.314 150.94 104.484 150.87 104.684 150.87H106.214C108.014 150.87 109.444 151.15 110.504 151.71C111.584 152.25 112.364 153.09 112.844 154.23C113.324 155.35 113.564 156.79 113.564 158.55C113.564 159.93 113.354 161.14 112.934 162.18C112.534 163.22 111.984 164.12 111.284 164.88C110.604 165.62 109.824 166.24 108.944 166.74C108.064 167.24 107.154 167.64 106.214 167.94L104.984 168.33ZM105.554 154.17L101.234 154.14C101.034 154.14 100.864 154.08 100.724 153.96C100.584 153.82 100.514 153.65 100.514 153.45V147.42C100.514 147.22 100.584 147.05 100.724 146.91C100.864 146.77 101.034 146.7 101.234 146.7H103.394C103.614 146.7 103.784 146.77 103.904 146.91C104.044 147.05 104.114 147.22 104.114 147.42V150.87H105.614L105.554 154.17ZM118.072 173.73C117.872 173.73 117.702 173.66 117.562 173.52C117.422 173.38 117.352 173.21 117.352 173.01V157.83C117.352 157.63 117.422 157.46 117.562 157.32C117.702 157.18 117.872 157.11 118.072 157.11H120.352C120.572 157.11 120.742 157.18 120.862 157.32C121.002 157.46 121.072 157.63 121.072 157.83V173.01C121.072 173.21 121.002 173.38 120.862 173.52C120.742 173.66 120.572 173.73 120.352 173.73H118.072ZM124.522 168.33C124.322 168.37 124.142 168.32 123.982 168.18C123.822 168.04 123.742 167.87 123.742 167.67V165.54C123.742 165.34 123.802 165.16 123.922 165C124.062 164.84 124.242 164.72 124.462 164.64L125.512 164.22C126.192 163.94 126.812 163.59 127.372 163.17C127.932 162.73 128.372 162.15 128.692 161.43C129.012 160.69 129.172 159.74 129.172 158.58C129.172 157.5 129.042 156.64 128.782 156C128.542 155.34 128.112 154.87 127.492 154.59C126.892 154.31 126.072 154.17 125.032 154.17H118.072C117.872 154.17 117.702 154.1 117.562 153.96C117.422 153.82 117.352 153.65 117.352 153.45V151.56C117.352 151.36 117.422 151.2 117.562 151.08C117.702 150.94 117.872 150.87 118.072 150.87H125.722C127.542 150.87 128.982 151.15 130.042 151.71C131.122 152.25 131.892 153.09 132.352 154.23C132.832 155.35 133.072 156.79 133.072 158.55C133.072 159.93 132.872 161.14 132.472 162.18C132.072 163.22 131.522 164.12 130.822 164.88C130.122 165.62 129.332 166.24 128.452 166.74C127.592 167.24 126.692 167.64 125.752 167.94L124.522 168.33ZM137.048 168C136.848 168 136.678 167.93 136.538 167.79C136.398 167.65 136.328 167.48 136.328 167.28V165.54C136.328 165.34 136.398 165.17 136.538 165.03C136.678 164.89 136.848 164.82 137.048 164.82H145.148V158.37C145.148 156.99 144.808 155.93 144.128 155.19C143.448 154.43 142.358 154.05 140.858 154.05H137.348C137.148 154.05 136.978 153.98 136.838 153.84C136.698 153.7 136.628 153.53 136.628 153.33V151.59C136.628 151.39 136.698 151.22 136.838 151.08C136.978 150.94 137.148 150.87 137.348 150.87H141.008C142.768 150.87 144.248 151.14 145.448 151.68C146.648 152.2 147.548 153.01 148.148 154.11C148.768 155.21 149.078 156.61 149.078 158.31V164.82H150.158C150.358 164.82 150.528 164.89 150.668 165.03C150.808 165.17 150.878 165.34 150.878 165.54V167.28C150.878 167.48 150.808 167.65 150.668 167.79C150.528 167.93 150.358 168 150.158 168H137.048ZM163.349 154.14V156.36C163.349 156.98 163.409 157.5 163.529 157.92C163.669 158.34 163.929 158.61 164.309 158.73L165.299 159.03C165.459 159.07 165.579 159.18 165.659 159.36C165.759 159.52 165.809 159.72 165.809 159.96L165.839 161.19C165.839 161.41 165.719 161.58 165.479 161.7C165.259 161.8 165.039 161.83 164.819 161.79L163.439 161.55C162.779 161.43 162.199 161.15 161.699 160.71C161.199 160.27 160.809 159.67 160.529 158.91C160.269 158.15 160.139 157.23 160.139 156.15V151.59C160.139 151.37 160.199 151.2 160.319 151.08C160.459 150.94 160.639 150.87 160.859 150.87H166.139C167.879 150.87 169.309 151.18 170.429 151.8C171.549 152.4 172.379 153.27 172.919 154.41C173.479 155.53 173.779 156.87 173.819 158.43V171C173.819 171.2 173.749 171.37 173.609 171.51C173.489 171.65 173.319 171.72 173.099 171.72H170.849C170.649 171.72 170.479 171.65 170.339 171.51C170.199 171.37 170.129 171.2 170.129 171V158.46C170.109 157.1 169.749 156.04 169.049 155.28C168.349 154.5 167.259 154.12 165.779 154.14H163.349ZM178.803 168C178.603 168 178.433 167.93 178.293 167.79C178.153 167.65 178.083 167.48 178.083 167.28V151.59C178.083 151.39 178.153 151.22 178.293 151.08C178.433 150.94 178.603 150.87 178.803 150.87H181.293C181.493 150.87 181.663 150.94 181.803 151.08C181.943 151.22 182.013 151.39 182.013 151.59V167.28C182.013 167.48 181.943 167.65 181.803 167.79C181.663 167.93 181.493 168 181.293 168H178.803ZM189.56 154.17V155.91C189.58 156.49 189.66 156.97 189.8 157.35C189.94 157.71 190.18 157.94 190.52 158.04L191.51 158.34C191.67 158.38 191.79 158.49 191.87 158.67C191.97 158.83 192.02 159.03 192.02 159.27L192.05 160.35C192.05 160.63 191.92 160.84 191.66 160.98C191.42 161.1 191.15 161.14 190.85 161.1L189.65 160.86C188.99 160.74 188.41 160.47 187.91 160.05C187.41 159.61 187.02 159.03 186.74 158.31C186.48 157.57 186.35 156.7 186.35 155.7V151.59C186.35 151.39 186.41 151.22 186.53 151.08C186.67 150.94 186.85 150.87 187.07 150.87H192.86C194.5 150.87 195.85 151.18 196.91 151.8C197.99 152.4 198.8 153.27 199.34 154.41C199.88 155.53 200.18 156.87 200.24 158.43C200.26 158.73 200.27 159.07 200.27 159.45C200.27 159.81 200.26 160.14 200.24 160.44C200.18 161.98 199.88 163.32 199.34 164.46C198.8 165.6 197.99 166.48 196.91 167.1C195.85 167.7 194.5 168 192.86 168H187.43C187.21 168 187.03 167.93 186.89 167.79C186.77 167.65 186.71 167.48 186.71 167.28V165.42C186.71 165.22 186.77 165.05 186.89 164.91C187.03 164.77 187.21 164.7 187.43 164.7H192.71C193.91 164.7 194.86 164.33 195.56 163.59C196.28 162.83 196.67 161.77 196.73 160.41C196.75 160.11 196.76 159.79 196.76 159.45C196.76 159.09 196.75 158.76 196.73 158.46C196.69 157.1 196.31 156.05 195.59 155.31C194.87 154.55 193.91 154.17 192.71 154.17H189.56ZM204.594 160.98C204.394 160.98 204.224 160.91 204.084 160.77C203.944 160.63 203.874 160.46 203.874 160.26V151.59C203.874 151.39 203.944 151.22 204.084 151.08C204.224 150.94 204.394 150.87 204.594 150.87H207.084C207.304 150.87 207.474 150.94 207.594 151.08C207.734 151.22 207.804 151.39 207.804 151.59V160.26C207.804 160.46 207.734 160.63 207.594 160.77C207.474 160.91 207.304 160.98 207.084 160.98H204.594ZM212.719 168C212.519 168 212.349 167.93 212.209 167.79C212.069 167.65 211.999 167.48 211.999 167.28V165.42C211.999 165.22 212.069 165.05 212.209 164.91C212.349 164.77 212.519 164.7 212.719 164.7H217.039C218.539 164.7 219.629 164.33 220.309 163.59C221.009 162.83 221.399 161.77 221.479 160.41C221.499 160.01 221.509 159.69 221.509 159.45C221.509 159.19 221.499 158.86 221.479 158.46C221.419 157.1 221.039 156.05 220.339 155.31C219.639 154.55 218.539 154.17 217.039 154.17H212.719C212.519 154.17 212.349 154.1 212.209 153.96C212.069 153.82 211.999 153.65 211.999 153.45V151.59C211.999 151.39 212.069 151.22 212.209 151.08C212.349 150.94 212.519 150.87 212.719 150.87H217.189C219.029 150.87 220.519 151.18 221.659 151.8C222.819 152.4 223.679 153.27 224.239 154.41C224.799 155.53 225.099 156.87 225.139 158.43C225.159 158.81 225.169 159.15 225.169 159.45C225.169 159.73 225.159 160.06 225.139 160.44C225.099 161.98 224.799 163.32 224.239 164.46C223.679 165.6 222.819 166.48 221.659 167.1C220.519 167.7 219.029 168 217.189 168H212.719ZM229.661 168C229.461 168 229.291 167.93 229.151 167.79C229.011 167.65 228.941 167.48 228.941 167.28V151.59C228.941 151.39 229.011 151.22 229.151 151.08C229.291 150.94 229.461 150.87 229.661 150.87H232.151C232.351 150.87 232.521 150.94 232.661 151.08C232.801 151.22 232.871 151.39 232.871 151.59V167.28C232.871 167.48 232.801 167.65 232.661 167.79C232.521 167.93 232.351 168 232.151 168H229.661ZM252.78 158.34C252.78 156.98 252.43 155.93 251.73 155.19C251.05 154.43 249.96 154.05 248.46 154.05H243.87C243.67 154.05 243.5 153.98 243.36 153.84C243.22 153.7 243.15 153.53 243.15 153.33V151.59C243.15 151.39 243.22 151.22 243.36 151.08C243.5 150.94 243.67 150.87 243.87 150.87H248.61C250.37 150.87 251.84 151.12 253.02 151.62C254.2 152.12 255.08 152.91 255.66 153.99C256.26 155.05 256.56 156.45 256.56 158.19V171C256.56 171.2 256.49 171.37 256.35 171.51C256.23 171.65 256.06 171.72 255.84 171.72H253.5C253.28 171.72 253.1 171.65 252.96 171.51C252.84 171.39 252.78 171.22 252.78 171V158.34ZM261.528 168C261.328 168 261.158 167.93 261.018 167.79C260.878 167.65 260.808 167.48 260.808 167.28V151.59C260.808 151.39 260.878 151.22 261.018 151.08C261.158 150.94 261.328 150.87 261.528 150.87H264.018C264.218 150.87 264.388 150.94 264.528 151.08C264.668 151.22 264.738 151.39 264.738 151.59V167.28C264.738 167.48 264.668 167.65 264.528 167.79C264.388 167.93 264.218 168 264.018 168H261.528ZM270.425 154.05C270.225 154.05 270.055 153.98 269.915 153.84C269.775 153.7 269.705 153.53 269.705 153.33V151.59C269.705 151.39 269.775 151.22 269.915 151.08C270.055 150.94 270.225 150.87 270.425 150.87H277.805C279.565 150.87 281.025 151.14 282.185 151.68C283.365 152.2 284.255 153.01 284.855 154.11C285.455 155.19 285.755 156.55 285.755 158.19V167.28C285.755 167.48 285.685 167.65 285.545 167.79C285.405 167.93 285.235 168 285.035 168H282.665C282.445 168 282.265 167.94 282.125 167.82C282.005 167.68 281.945 167.5 281.945 167.28V158.34C281.945 156.98 281.595 155.93 280.895 155.19C280.215 154.43 279.125 154.05 277.625 154.05H270.425ZM273.665 152.28H274.685C275.125 152.28 275.425 152.37 275.585 152.55C275.765 152.73 275.835 152.94 275.795 153.18C275.615 153.9 275.465 154.58 275.345 155.22C275.245 155.84 275.165 156.47 275.105 157.11C275.065 157.75 275.045 158.46 275.045 159.24L275.195 167.28C275.195 167.48 275.125 167.65 274.985 167.79C274.865 167.93 274.695 168 274.475 168L269.255 167.97C269.055 167.97 268.885 167.9 268.745 167.76C268.605 167.62 268.535 167.45 268.535 167.25V165.63C268.535 165.43 268.605 165.26 268.745 165.12C268.885 164.98 269.055 164.91 269.255 164.91L271.625 164.94V159.33C271.625 158.59 271.635 157.9 271.655 157.26C271.695 156.62 271.765 155.97 271.865 155.31C271.985 154.65 272.155 153.93 272.375 153.15C272.455 152.91 272.585 152.71 272.765 152.55C272.945 152.37 273.245 152.28 273.665 152.28ZM290.542 160.98C290.342 160.98 290.172 160.91 290.032 160.77C289.892 160.63 289.822 160.46 289.822 160.26V151.59C289.822 151.39 289.892 151.22 290.032 151.08C290.172 150.94 290.342 150.87 290.542 150.87H293.032C293.252 150.87 293.422 150.94 293.542 151.08C293.682 151.22 293.752 151.39 293.752 151.59V160.26C293.752 160.46 293.682 160.63 293.542 160.77C293.422 160.91 293.252 160.98 293.032 160.98H290.542ZM298.756 168C298.556 168 298.386 167.93 298.246 167.79C298.106 167.65 298.036 167.48 298.036 167.28V151.59C298.036 151.39 298.106 151.22 298.246 151.08C298.386 150.94 298.556 150.87 298.756 150.87H305.176C306.956 150.87 308.426 151.13 309.586 151.65C310.766 152.17 311.646 152.98 312.226 154.08C312.826 155.18 313.126 156.59 313.126 158.31V167.28C313.126 167.48 313.056 167.65 312.916 167.79C312.776 167.93 312.606 168 312.406 168H310.036C309.836 168 309.666 167.94 309.526 167.82C309.386 167.68 309.316 167.5 309.316 167.28V158.34C309.316 156.98 308.976 155.93 308.296 155.19C307.616 154.43 306.526 154.05 305.026 154.05H301.846V167.28C301.846 167.48 301.776 167.65 301.636 167.79C301.496 167.93 301.326 168 301.126 168H298.756ZM325.795 154.05C325.595 154.05 325.425 153.98 325.285 153.84C325.145 153.7 325.075 153.53 325.075 153.33V151.59C325.075 151.39 325.145 151.22 325.285 151.08C325.425 150.94 325.595 150.87 325.795 150.87H333.175C334.935 150.87 336.395 151.14 337.555 151.68C338.735 152.2 339.625 153.01 340.225 154.11C340.825 155.19 341.125 156.55 341.125 158.19V167.28C341.125 167.48 341.055 167.65 340.915 167.79C340.775 167.93 340.605 168 340.405 168H338.035C337.815 168 337.635 167.94 337.495 167.82C337.375 167.68 337.315 167.5 337.315 167.28V158.34C337.315 156.98 336.965 155.93 336.265 155.19C335.585 154.43 334.495 154.05 332.995 154.05H325.795ZM329.035 152.28H330.055C330.495 152.28 330.795 152.37 330.955 152.55C331.135 152.73 331.205 152.94 331.165 153.18C330.985 153.9 330.835 154.58 330.715 155.22C330.615 155.84 330.535 156.47 330.475 157.11C330.435 157.75 330.415 158.46 330.415 159.24L330.565 167.28C330.565 167.48 330.495 167.65 330.355 167.79C330.235 167.93 330.065 168 329.845 168L324.625 167.97C324.425 167.97 324.255 167.9 324.115 167.76C323.975 167.62 323.905 167.45 323.905 167.25V165.63C323.905 165.43 323.975 165.26 324.115 165.12C324.255 164.98 324.425 164.91 324.625 164.91L326.995 164.94V159.33C326.995 158.59 327.005 157.9 327.025 157.26C327.065 156.62 327.135 155.97 327.235 155.31C327.355 154.65 327.525 153.93 327.745 153.15C327.825 152.91 327.955 152.71 328.135 152.55C328.315 152.37 328.615 152.28 329.035 152.28ZM346.092 168C345.892 168 345.722 167.93 345.582 167.79C345.442 167.65 345.372 167.48 345.372 167.28V151.59C345.372 151.39 345.442 151.22 345.582 151.08C345.722 150.94 345.892 150.87 346.092 150.87H348.582C348.782 150.87 348.952 150.94 349.092 151.08C349.232 151.22 349.302 151.39 349.302 151.59V167.28C349.302 167.48 349.232 167.65 349.092 167.79C348.952 167.93 348.782 168 348.582 168H346.092ZM360.928 168C360.488 168 360.268 167.78 360.268 167.34V157.38C360.268 156.16 360.408 155.22 360.688 154.56C360.968 153.88 361.358 153.54 361.858 153.54H365.728C365.228 153.54 364.818 153.94 364.498 154.74C364.198 155.52 364.048 156.49 364.048 157.65V167.34C364.048 167.54 363.968 167.7 363.808 167.82C363.648 167.94 363.468 168 363.268 168H360.928ZM353.368 154.05C353.168 154.05 352.998 153.98 352.858 153.84C352.718 153.7 352.648 153.53 352.648 153.33V151.59C352.648 151.39 352.718 151.22 352.858 151.08C352.998 150.94 353.168 150.87 353.368 150.87H366.478C366.698 150.87 366.868 150.94 366.988 151.08C367.128 151.22 367.198 151.39 367.198 151.59V153.33C367.198 153.53 367.128 153.7 366.988 153.84C366.868 153.98 366.698 154.05 366.478 154.05H353.368ZM371.448 168C371.248 168 371.078 167.93 370.938 167.79C370.798 167.65 370.728 167.48 370.728 167.28V151.59C370.728 151.39 370.798 151.22 370.938 151.08C371.078 150.94 371.248 150.87 371.448 150.87H373.938C374.138 150.87 374.308 150.94 374.448 151.08C374.588 151.22 374.658 151.39 374.658 151.59V167.28C374.658 167.48 374.588 167.65 374.448 167.79C374.308 167.93 374.138 168 373.938 168H371.448ZM379.144 168C378.944 168 378.774 167.93 378.634 167.79C378.494 167.65 378.424 167.48 378.424 167.28V165.54C378.424 165.34 378.494 165.17 378.634 165.03C378.774 164.89 378.944 164.82 379.144 164.82H387.244V158.37C387.244 156.99 386.904 155.93 386.224 155.19C385.544 154.43 384.454 154.05 382.954 154.05H379.444C379.244 154.05 379.074 153.98 378.934 153.84C378.794 153.7 378.724 153.53 378.724 153.33V151.59C378.724 151.39 378.794 151.22 378.934 151.08C379.074 150.94 379.244 150.87 379.444 150.87H383.104C384.864 150.87 386.344 151.14 387.544 151.68C388.744 152.2 389.644 153.01 390.244 154.11C390.864 155.21 391.174 156.61 391.174 158.31V164.82H392.254C392.454 164.82 392.624 164.89 392.764 165.03C392.904 165.17 392.974 165.34 392.974 165.54V167.28C392.974 167.48 392.904 167.65 392.764 167.79C392.624 167.93 392.454 168 392.254 168H379.144ZM396.112 169.68C395.892 169.74 395.692 169.7 395.512 169.56C395.352 169.44 395.272 169.28 395.272 169.08V167.34C395.272 167.14 395.322 166.97 395.422 166.83C395.522 166.67 395.672 166.56 395.872 166.5L402.322 164.64C403.442 164.32 404.302 163.9 404.902 163.38C405.502 162.84 405.922 162.21 406.162 161.49C406.402 160.75 406.522 159.93 406.522 159.03V151.59C406.522 151.37 406.582 151.2 406.702 151.08C406.842 150.94 407.022 150.87 407.242 150.87H409.582C409.802 150.87 409.972 150.94 410.092 151.08C410.232 151.22 410.302 151.39 410.302 151.59V160.17C410.302 161.41 410.012 162.54 409.432 163.56C408.872 164.58 408.062 165.46 407.002 166.2C405.942 166.92 404.672 167.46 403.192 167.82L396.112 169.68ZM400.012 167.28L395.782 152.07C395.742 151.91 395.702 151.79 395.662 151.71C395.642 151.63 395.632 151.55 395.632 151.47C395.632 151.31 395.692 151.17 395.812 151.05C395.932 150.93 396.072 150.87 396.232 150.87H398.812C399.192 150.87 399.422 151.02 399.502 151.32L403.462 166.59L400.012 167.28ZM430.33 168C430.11 168 429.93 167.94 429.79 167.82C429.67 167.68 429.61 167.5 429.61 167.28V158.34C429.61 156.98 429.26 155.93 428.56 155.19C427.88 154.43 426.79 154.05 425.29 154.05H421.09C420.87 154.05 420.69 153.98 420.55 153.84C420.43 153.7 420.37 153.53 420.37 153.33V151.59C420.37 151.39 420.43 151.22 420.55 151.08C420.69 150.94 420.87 150.87 421.09 150.87H425.47C427.23 150.87 428.69 151.13 429.85 151.65C431.03 152.15 431.91 152.94 432.49 154.02C433.09 155.1 433.39 156.49 433.39 158.19V167.28C433.39 167.48 433.32 167.65 433.18 167.79C433.06 167.93 432.89 168 432.67 168H430.33ZM438.368 168C438.168 168 437.998 167.93 437.858 167.79C437.718 167.65 437.648 167.48 437.648 167.28V151.59C437.648 151.39 437.718 151.22 437.858 151.08C437.998 150.94 438.168 150.87 438.368 150.87H440.858C441.058 150.87 441.228 150.94 441.368 151.08C441.508 151.22 441.578 151.39 441.578 151.59V167.28C441.578 167.48 441.508 167.65 441.368 167.79C441.228 167.93 441.058 168 440.858 168H438.368ZM446.724 168C446.524 168 446.354 167.93 446.214 167.79C446.074 167.65 446.004 167.48 446.004 167.28V151.59C446.004 151.39 446.074 151.22 446.214 151.08C446.354 150.94 446.524 150.87 446.724 150.87H453.144C454.924 150.87 456.394 151.13 457.554 151.65C458.734 152.17 459.614 152.98 460.194 154.08C460.794 155.18 461.094 156.59 461.094 158.31V167.28C461.094 167.48 461.024 167.65 460.884 167.79C460.744 167.93 460.574 168 460.374 168H458.004C457.804 168 457.634 167.94 457.494 167.82C457.354 167.68 457.284 167.5 457.284 167.28V158.34C457.284 156.98 456.944 155.93 456.264 155.19C455.584 154.43 454.494 154.05 452.994 154.05H449.814V167.28C449.814 167.48 449.744 167.65 449.604 167.79C449.464 167.93 449.294 168 449.094 168H446.724ZM473.657 154.14L465.617 154.17C465.417 154.17 465.247 154.1 465.107 153.96C464.967 153.82 464.897 153.65 464.897 153.45V151.59C464.897 151.39 464.967 151.22 465.107 151.08C465.247 150.94 465.417 150.87 465.617 150.87H474.167C475.447 150.87 476.597 151.15 477.617 151.71C478.637 152.25 479.427 153.06 479.987 154.14C480.567 155.22 480.857 156.57 480.857 158.19V167.28C480.857 167.48 480.787 167.65 480.647 167.79C480.527 167.93 480.357 168 480.137 168H472.217C471.997 168 471.817 167.93 471.677 167.79C471.557 167.65 471.497 167.48 471.497 167.28V165.54C471.497 165.34 471.557 165.17 471.677 165.03C471.817 164.89 471.997 164.82 472.217 164.82H477.077V158.4C477.077 157.52 476.927 156.76 476.627 156.12C476.327 155.48 475.917 154.99 475.397 154.65C474.877 154.31 474.297 154.14 473.657 154.14ZM465.347 168C465.167 168 465.007 167.93 464.867 167.79C464.727 167.65 464.677 167.47 464.717 167.25L467.567 153.24C467.607 153.02 467.697 152.85 467.837 152.73C467.977 152.61 468.147 152.56 468.347 152.58L470.357 152.64C470.577 152.66 470.747 152.75 470.867 152.91C471.007 153.07 471.057 153.25 471.017 153.45L468.437 167.25C468.437 167.47 468.357 167.65 468.197 167.79C468.037 167.93 467.857 168 467.657 168H465.347ZM486.39 154.05C486.19 154.05 486.02 153.98 485.88 153.84C485.74 153.7 485.67 153.53 485.67 153.33V151.59C485.67 151.39 485.74 151.22 485.88 151.08C486.02 150.94 486.19 150.87 486.39 150.87H493.77C495.53 150.87 496.99 151.14 498.15 151.68C499.33 152.2 500.22 153.01 500.82 154.11C501.42 155.19 501.72 156.55 501.72 158.19V167.28C501.72 167.48 501.65 167.65 501.51 167.79C501.37 167.93 501.2 168 501 168H498.63C498.41 168 498.23 167.94 498.09 167.82C497.97 167.68 497.91 167.5 497.91 167.28V158.34C497.91 156.98 497.56 155.93 496.86 155.19C496.18 154.43 495.09 154.05 493.59 154.05H486.39ZM489.63 152.28H490.65C491.09 152.28 491.39 152.37 491.55 152.55C491.73 152.73 491.8 152.94 491.76 153.18C491.58 153.9 491.43 154.58 491.31 155.22C491.21 155.84 491.13 156.47 491.07 157.11C491.03 157.75 491.01 158.46 491.01 159.24L491.16 167.28C491.16 167.48 491.09 167.65 490.95 167.79C490.83 167.93 490.66 168 490.44 168L485.22 167.97C485.02 167.97 484.85 167.9 484.71 167.76C484.57 167.62 484.5 167.45 484.5 167.25V165.63C484.5 165.43 484.57 165.26 484.71 165.12C484.85 164.98 485.02 164.91 485.22 164.91L487.59 164.94V159.33C487.59 158.59 487.6 157.9 487.62 157.26C487.66 156.62 487.73 155.97 487.83 155.31C487.95 154.65 488.12 153.93 488.34 153.15C488.42 152.91 488.55 152.71 488.73 152.55C488.91 152.37 489.21 152.28 489.63 152.28Z" fill="#DEDEDE"/>
</svg>
