<svg width="1374" height="364" viewBox="0 0 1374 364" fill="none" xmlns="http://www.w3.org/2000/svg">
<g clip-path="url(#clip0_837_191)">
<path d="M250.539 266C247.872 266 245.606 265.067 243.739 263.2C241.872 261.333 240.939 259.067 240.939 256.4V137.6C240.939 120.533 236.672 107.467 228.139 98.4C219.872 89.3333 206.672 84.8 188.539 84.8H102.539C99.6057 84.8 97.2057 83.8667 95.3391 82C93.4724 80.1333 92.5391 77.7333 92.5391 74.8V47.6C92.5391 44.6667 93.4724 42.2667 95.3391 40.4C97.2057 38.5333 99.6057 37.6 102.539 37.6H190.539C226.006 37.6 252.806 45.7333 270.939 62C289.339 78.2667 298.539 103.333 298.539 137.2V256C298.539 258.933 297.606 261.333 295.739 263.2C293.872 265.067 291.472 266 288.539 266H250.539ZM102.539 266C99.6057 266 97.2057 265.067 95.3391 263.2C93.4724 261.333 92.5391 258.933 92.5391 256V134C92.5391 131.333 93.4724 129.067 95.3391 127.2C97.2057 125.067 99.6057 124 102.539 124H140.539C143.206 124 145.472 125.067 147.339 127.2C149.206 129.067 150.139 131.333 150.139 134V256C150.139 258.933 149.206 261.333 147.339 263.2C145.472 265.067 143.206 266 140.539 266H102.539ZM425.608 266C422.674 266 420.274 265.067 418.408 263.2C416.808 261.333 415.874 258.933 415.608 256L391.608 135.6C389.208 124.133 386.541 114.667 383.608 107.2C380.674 99.7333 376.674 94.1333 371.608 90.4C366.541 86.6667 359.474 84.8 350.408 84.8H336.408C333.474 84.8 331.074 83.8667 329.208 82C327.341 80.1333 326.408 77.7333 326.408 74.8V45.2C326.408 42.5333 327.341 40.2667 329.208 38.4C331.074 36.5333 333.474 35.6 336.408 35.6H351.608C372.674 35.6 389.608 39.0667 402.408 46C415.474 52.6667 425.741 63.2 433.208 77.6C440.674 92 446.674 110.533 451.208 133.2L475.208 256C475.741 258.933 474.941 261.333 472.808 263.2C470.674 265.067 468.274 266 465.608 266H425.608ZM382.408 246C372.008 252.4 362.408 257.467 353.608 261.2C344.808 264.667 335.741 267.333 326.408 269.2C323.741 269.467 321.474 269.2 319.608 268.4C317.741 267.6 316.808 265.867 316.808 263.2V227.2C316.808 222.667 319.608 219.333 325.208 217.2C327.074 216.4 330.541 215.2 335.608 213.6C340.941 212 346.674 210.133 352.808 208C358.941 205.867 364.141 203.733 368.408 201.6C374.541 198.133 380.408 193.733 386.008 188.4C391.874 182.8 396.808 176.8 400.808 170.4C405.074 164 407.874 157.867 409.208 152L432.408 151.6C431.341 166.533 428.674 180.133 424.408 192.4C420.141 204.4 414.408 214.933 407.208 224C400.008 233.067 391.741 240.4 382.408 246ZM605.07 86.8H493.47C490.537 86.8 488.137 85.8667 486.27 84C484.404 82.1333 483.47 79.8667 483.47 77.2V47.6C483.47 44.6667 484.404 42.2667 486.27 40.4C488.137 38.5333 490.537 37.6 493.47 37.6H613.07C630.67 37.6 646.27 41.2 659.87 48.4C673.737 55.3333 684.537 66.1333 692.27 80.8C700.27 95.2 704.27 113.333 704.27 135.2V256C704.27 258.933 703.337 261.333 701.47 263.2C699.604 265.067 697.204 266 694.27 266H587.47C584.537 266 582.137 265.067 580.27 263.2C578.404 261.333 577.47 258.933 577.47 256V228.8C577.47 225.867 578.404 223.467 580.27 221.6C582.137 219.733 584.537 218.8 587.47 218.8H646.67V138.4C646.67 127.467 644.804 118.133 641.07 110.4C637.604 102.667 632.67 96.8 626.27 92.8C620.137 88.8 613.07 86.8 605.07 86.8ZM489.87 266C487.204 266 484.937 265.067 483.07 263.2C481.204 261.067 480.537 258.667 481.07 256L521.07 73.2C521.604 70.5333 522.804 68.4 524.67 66.8C526.537 64.9333 528.804 64.1333 531.47 64.4L563.47 64.8C566.404 65.0667 568.804 66.4 570.67 68.8C572.537 70.9333 573.204 73.3333 572.67 76L537.47 256C537.204 258.667 536.004 261.067 533.87 263.2C532.004 265.067 529.737 266 527.07 266H489.87ZM739.914 266C736.981 266 734.581 265.067 732.714 263.2C730.847 261.333 729.914 258.933 729.914 256V47.6C729.914 44.6667 730.847 42.2667 732.714 40.4C734.581 38.5333 736.981 37.6 739.914 37.6H779.914C782.581 37.6 784.847 38.5333 786.714 40.4C788.581 42.2667 789.514 44.6667 789.514 47.6V256C789.514 258.933 788.581 261.333 786.714 263.2C784.847 265.067 782.581 266 779.914 266H739.914ZM973.633 266C969.633 266 966.566 265.067 964.433 263.2C962.566 261.067 961.099 259.467 960.033 258.4L815.633 52C814.299 50.1333 813.633 48.1333 813.633 46C813.633 43.8667 814.433 42 816.033 40.4C817.633 38.5333 819.633 37.6 822.033 37.6H860.033C864.033 37.6 866.966 38.6667 868.833 40.8C870.699 42.6666 872.166 44.2667 873.233 45.6L1019.23 251.6C1020.3 252.933 1020.97 254.133 1021.23 255.2C1021.5 256 1021.63 256.8 1021.63 257.6C1021.63 259.733 1020.7 261.733 1018.83 263.6C1017.23 265.2 1015.37 266 1013.23 266H973.633ZM820.833 266C818.166 266 815.899 265.067 814.033 263.2C812.166 261.067 811.233 258.533 811.233 255.6V202.8C811.233 188.667 812.433 176 814.833 164.8C817.499 153.333 822.299 142.8 829.233 133.2C836.166 123.6 846.299 114.4 859.633 105.6L887.633 146C880.166 151.067 874.566 156.933 870.833 163.6C867.366 170.267 865.099 177.067 864.033 184C862.966 190.667 862.433 196.933 862.433 202.8V255.6C862.433 258.8 861.499 261.333 859.633 263.2C857.766 265.067 855.499 266 852.833 266H820.833ZM962.833 189.6L935.633 149.6C945.499 144.8 952.433 139.6 956.433 134C960.433 128.4 962.833 122.667 963.633 116.8C964.699 110.667 965.233 104.667 965.233 98.8V48C965.233 44.8 966.166 42.2667 968.033 40.4C969.899 38.5333 972.166 37.6 974.833 37.6H1008.83C1011.5 37.6 1013.77 38.6667 1015.63 40.8C1017.5 42.6666 1018.43 45.0667 1018.43 48V100.4C1018.43 111.333 1016.97 122 1014.03 132.4C1011.37 142.8 1006.03 152.8 998.033 162.4C990.299 172 978.566 181.067 962.833 189.6Z" fill="#200060"/>
<path d="M1150.12 226.107C1137.74 220.893 1127.88 214.929 1120.52 208.223C1109.74 198.642 1101.72 187.144 1096.44 173.731C1091.16 160.318 1088.52 145.576 1088.52 129.5C1088.52 96.5008 1098.73 69.8347 1119.16 49.4997C1139.59 29.1684 1166.7 19 1200.52 19C1225.37 19 1246.15 23.2064 1262.84 31.6155C1279.53 40.0265 1292.87 53.0408 1302.84 70.6585C1312.81 88.2781 1317.8 107.784 1317.8 129.181C1317.8 150.685 1312.81 169.873 1302.84 186.746C1292.87 203.618 1277.48 216.634 1256.68 225.787L1309.48 222.115H1321V259H1218.28V220.199C1228.63 215.195 1236.78 209.606 1242.76 203.431C1250.86 194.916 1256.97 184.565 1261.08 172.374C1265.18 160.186 1267.24 147.332 1267.24 133.81C1267.24 107.519 1261.13 87.6388 1248.92 74.1697C1236.7 60.7044 1221.1 53.9708 1202.12 53.9708C1183.98 53.9708 1168.81 60.8647 1156.6 74.6487C1144.38 88.4365 1138.28 107.89 1138.28 133.013C1138.28 147.49 1140.6 160.957 1145.24 173.411C1149.88 185.868 1156.52 196.405 1165.16 205.029C1170.7 210.566 1178.39 215.622 1188.2 220.199V259H1085V222.274H1100.68L1150.12 226.107Z" fill="#6A23F7"/>
<path d="M92.9353 345.943C92.4 345.943 91.962 345.773 91.6213 345.432C91.2807 345.091 91.1103 344.653 91.1103 344.118V308.567C91.1103 308.08 91.2807 307.667 91.6213 307.326C91.962 306.937 92.4 306.742 92.9353 306.742H100.819C101.355 306.742 101.793 306.937 102.133 307.326C102.474 307.667 102.644 308.08 102.644 308.567V344.118C102.644 344.653 102.474 345.091 102.133 345.432C101.793 345.773 101.355 345.943 100.819 345.943H92.9353ZM110.236 332.876C109.798 333.022 109.36 332.876 108.922 332.438C108.533 332 108.338 331.538 108.338 331.051V324.043C108.338 323.556 108.509 323.094 108.849 322.656C109.19 322.218 109.628 321.902 110.163 321.707L112.499 320.758C113.862 320.174 115.103 319.444 116.222 318.568C117.39 317.643 118.315 316.427 118.996 314.918C119.678 313.409 120.018 311.438 120.018 309.005C120.018 306.912 119.775 305.233 119.288 303.968C118.802 302.703 117.974 301.778 116.806 301.194C115.638 300.61 114.032 300.318 111.988 300.318H92.9353C92.4487 300.318 92.0107 300.148 91.6213 299.807C91.2807 299.466 91.1103 299.028 91.1103 298.493V292.069C91.1103 291.582 91.2807 291.169 91.6213 290.828C92.0107 290.487 92.4487 290.317 92.9353 290.317H114.397C118.777 290.317 122.257 291.023 124.836 292.434C127.416 293.797 129.289 295.865 130.457 298.639C131.625 301.364 132.209 304.722 132.209 308.713C132.209 312.022 131.674 314.967 130.603 317.546C129.581 320.125 128.17 322.388 126.369 324.335C124.569 326.233 122.525 327.815 120.237 329.08C117.999 330.345 115.663 331.319 113.229 332L110.236 332.876ZM147.69 314.772C147.155 314.772 146.717 314.602 146.376 314.261C146.035 313.872 145.865 313.434 145.865 312.947V292.142C145.865 291.607 146.035 291.169 146.376 290.828C146.717 290.487 147.155 290.317 147.69 290.317H156.304C156.839 290.317 157.277 290.487 157.618 290.828C157.959 291.169 158.129 291.607 158.129 292.142V312.947C158.129 313.434 157.959 313.872 157.618 314.261C157.277 314.602 156.839 314.772 156.304 314.772H147.69ZM183.111 332.876C182.625 333.022 182.162 332.876 181.724 332.438C181.335 332 181.14 331.538 181.14 331.051V324.043C181.14 323.556 181.311 323.094 181.651 322.656C181.992 322.218 182.43 321.902 182.965 321.707L185.301 320.758C186.664 320.174 187.905 319.444 189.024 318.568C190.192 317.643 191.117 316.427 191.798 314.918C192.48 313.409 192.82 311.438 192.82 309.005C192.82 306.912 192.577 305.233 192.09 303.968C191.604 302.703 190.776 301.778 189.608 301.194C188.489 300.61 186.883 300.318 184.79 300.318H183.111C182.625 300.318 182.187 300.148 181.797 299.807C181.457 299.466 181.286 299.028 181.286 298.493V292.069C181.286 291.582 181.457 291.169 181.797 290.828C182.187 290.487 182.625 290.317 183.111 290.317H187.199C191.579 290.317 195.059 291.023 197.638 292.434C200.266 293.797 202.14 295.865 203.259 298.639C204.427 301.364 205.011 304.722 205.011 308.713C205.011 312.022 204.476 314.967 203.405 317.546C202.383 320.125 200.972 322.388 199.171 324.335C197.371 326.233 195.351 327.815 193.112 329.08C190.874 330.345 188.513 331.319 186.031 332L183.111 332.876ZM185.666 300.318H173.329C172.843 300.318 172.405 300.148 172.015 299.807C171.675 299.466 171.504 299.028 171.504 298.493V281.995C171.504 281.46 171.675 281.022 172.015 280.681C172.405 280.34 172.843 280.17 173.329 280.17H180.775C181.311 280.17 181.749 280.34 182.089 280.681C182.43 281.022 182.6 281.46 182.6 281.995V290.317H185.739L185.666 300.318ZM220.791 345.943C220.256 345.943 219.818 345.773 219.477 345.432C219.136 345.091 218.966 344.653 218.966 344.118V308.567C218.966 308.08 219.136 307.667 219.477 307.326C219.818 306.937 220.256 306.742 220.791 306.742H228.675C229.21 306.742 229.648 306.937 229.989 307.326C230.33 307.667 230.5 308.08 230.5 308.567V344.118C230.5 344.653 230.33 345.091 229.989 345.432C229.648 345.773 229.21 345.943 228.675 345.943H220.791ZM238.092 332.876C237.654 333.022 237.216 332.876 236.778 332.438C236.389 332 236.194 331.538 236.194 331.051V324.043C236.194 323.556 236.364 323.094 236.705 322.656C237.046 322.218 237.484 321.902 238.019 321.707L240.355 320.758C241.718 320.174 242.959 319.444 244.078 318.568C245.246 317.643 246.171 316.427 246.852 314.918C247.533 313.409 247.874 311.438 247.874 309.005C247.874 306.912 247.631 305.233 247.144 303.968C246.657 302.703 245.83 301.778 244.662 301.194C243.494 300.61 241.888 300.318 239.844 300.318H220.791C220.304 300.318 219.866 300.148 219.477 299.807C219.136 299.466 218.966 299.028 218.966 298.493V292.069C218.966 291.582 219.136 291.169 219.477 290.828C219.866 290.487 220.304 290.317 220.791 290.317H242.253C246.633 290.317 250.113 291.023 252.692 292.434C255.271 293.797 257.145 295.865 258.313 298.639C259.481 301.364 260.065 304.722 260.065 308.713C260.065 312.022 259.53 314.967 258.459 317.546C257.437 320.125 256.026 322.388 254.225 324.335C252.424 326.233 250.38 327.815 248.093 329.08C245.854 330.345 243.518 331.319 241.085 332L238.092 332.876ZM274.377 332C273.891 332 273.453 331.83 273.063 331.489C272.723 331.148 272.552 330.71 272.552 330.175V324.262C272.552 323.727 272.723 323.289 273.063 322.948C273.453 322.607 273.891 322.437 274.377 322.437H292.919V308.567C292.919 305.793 292.214 303.676 290.802 302.216C289.44 300.707 287.274 299.953 284.305 299.953H275.107C274.621 299.953 274.183 299.783 273.793 299.442C273.453 299.053 273.282 298.615 273.282 298.128V292.142C273.282 291.607 273.453 291.169 273.793 290.828C274.183 290.487 274.621 290.317 275.107 290.317H284.67C289.05 290.317 292.749 290.95 295.766 292.215C298.832 293.432 301.168 295.378 302.774 298.055C304.38 300.683 305.183 304.187 305.183 308.567V322.437H307.738C308.274 322.437 308.712 322.607 309.052 322.948C309.393 323.289 309.563 323.727 309.563 324.262V330.175C309.563 330.71 309.393 331.148 309.052 331.489C308.712 331.83 308.274 332 307.738 332H274.377ZM364.442 332C363.907 332 363.445 331.83 363.055 331.489C362.715 331.148 362.544 330.735 362.544 330.248V308.567C362.544 305.744 361.863 303.603 360.5 302.143C359.138 300.634 356.948 299.88 353.93 299.88H342.98C342.494 299.88 342.056 299.71 341.666 299.369C341.326 299.028 341.155 298.59 341.155 298.055V292.142C341.155 291.607 341.326 291.169 341.666 290.828C342.056 290.487 342.494 290.317 342.98 290.317H354.368C358.748 290.317 362.423 290.901 365.391 292.069C368.36 293.237 370.599 295.135 372.107 297.763C373.665 300.342 374.443 303.798 374.443 308.129V330.175C374.443 330.71 374.249 331.148 373.859 331.489C373.519 331.83 373.081 332 372.545 332H364.442ZM391.217 332C390.682 332 390.244 331.83 389.903 331.489C389.563 331.148 389.392 330.71 389.392 330.175V292.142C389.392 291.607 389.563 291.169 389.903 290.828C390.244 290.487 390.682 290.317 391.217 290.317H399.831C400.367 290.317 400.805 290.487 401.145 290.828C401.486 291.169 401.656 291.607 401.656 292.142V330.175C401.656 330.71 401.486 331.148 401.145 331.489C400.805 331.83 400.367 332 399.831 332H391.217ZM418.814 332C418.279 332 417.841 331.83 417.5 331.489C417.16 331.148 416.989 330.71 416.989 330.175V324.043C416.989 323.508 417.16 323.07 417.5 322.729C417.841 322.388 418.279 322.218 418.814 322.218H436.115L414.799 292.945C414.702 292.75 414.605 292.556 414.507 292.361C414.41 292.166 414.361 291.972 414.361 291.777C414.361 291.339 414.507 290.998 414.799 290.755C415.14 290.463 415.529 290.317 415.967 290.317H424.508C425.19 290.317 425.701 290.487 426.041 290.828C426.382 291.12 426.65 291.388 426.844 291.631L448.963 322.145C449.207 322.486 449.426 322.851 449.62 323.24C449.864 323.581 449.985 324.019 449.985 324.554V330.175C449.985 330.71 449.791 331.148 449.401 331.489C449.061 331.83 448.647 332 448.16 332H418.814ZM442.101 314.772L436.188 306.815C437.94 305.744 439.157 304.333 439.838 302.581C440.52 300.829 440.86 298.809 440.86 296.522V292.215C440.86 291.631 441.031 291.169 441.371 290.828C441.761 290.487 442.199 290.317 442.685 290.317H449.985C450.521 290.317 450.959 290.512 451.299 290.901C451.64 291.29 451.81 291.728 451.81 292.215V298.639C451.81 302.046 450.983 305.16 449.328 307.983C447.674 310.806 445.265 313.069 442.101 314.772ZM467.94 314.772C467.405 314.772 466.967 314.602 466.626 314.261C466.286 313.872 466.115 313.434 466.115 312.947V292.142C466.115 291.607 466.286 291.169 466.626 290.828C466.967 290.487 467.405 290.317 467.94 290.317H476.554C477.09 290.317 477.528 290.487 477.868 290.828C478.209 291.169 478.379 291.607 478.379 292.142V312.947C478.379 313.434 478.209 313.872 477.868 314.261C477.528 314.602 477.09 314.772 476.554 314.772H467.94ZM495.113 314.772C494.578 314.772 494.14 314.602 493.799 314.261C493.458 313.872 493.288 313.434 493.288 312.947V292.142C493.288 291.607 493.458 291.169 493.799 290.828C494.14 290.487 494.578 290.317 495.113 290.317H503.727C504.262 290.317 504.7 290.487 505.041 290.828C505.382 291.169 505.552 291.607 505.552 292.142V312.947C505.552 313.434 505.382 313.872 505.041 314.261C504.7 314.602 504.262 314.772 503.727 314.772H495.113ZM546.148 299.88C545.613 299.88 545.175 299.71 544.834 299.369C544.494 299.028 544.323 298.59 544.323 298.055V292.142C544.323 291.607 544.494 291.169 544.834 290.828C545.175 290.487 545.613 290.317 546.148 290.317H566.15C570.53 290.317 574.205 290.95 577.173 292.215C580.142 293.432 582.381 295.354 583.889 297.982C585.398 300.61 586.152 304.017 586.152 308.202V330.175C586.152 330.71 585.982 331.148 585.641 331.489C585.301 331.83 584.863 332 584.327 332H576.151C575.616 332 575.178 331.83 574.837 331.489C574.497 331.148 574.326 330.735 574.326 330.248V308.567C574.326 305.744 573.621 303.603 572.209 302.143C570.847 300.634 568.681 299.88 565.712 299.88H546.148ZM555.2 294.843H558.485C559.799 294.843 560.7 295.111 561.186 295.646C561.722 296.181 561.868 296.741 561.624 297.325C561.186 298.882 560.821 300.367 560.529 301.778C560.237 303.141 560.018 304.552 559.872 306.012C559.775 307.472 559.726 309.102 559.726 310.903L560.31 330.175C560.31 330.71 560.116 331.148 559.726 331.489C559.386 331.83 558.972 332 558.485 332L543.374 331.927C542.888 331.927 542.45 331.757 542.06 331.416C541.72 331.075 541.549 330.637 541.549 330.102V324.7C541.549 324.165 541.72 323.727 542.06 323.386C542.45 322.997 542.888 322.802 543.374 322.802L549.287 322.875V311.049C549.287 309.443 549.336 307.934 549.433 306.523C549.531 305.063 549.701 303.579 549.944 302.07C550.236 300.561 550.65 298.98 551.185 297.325C551.429 296.644 551.818 296.06 552.353 295.573C552.937 295.086 553.886 294.843 555.2 294.843ZM602.722 314.772C602.187 314.772 601.749 314.602 601.408 314.261C601.068 313.872 600.897 313.434 600.897 312.947V292.142C600.897 291.607 601.068 291.169 601.408 290.828C601.749 290.487 602.187 290.317 602.722 290.317H611.336C611.872 290.317 612.31 290.487 612.65 290.828C612.991 291.169 613.161 291.607 613.161 292.142V312.947C613.161 313.434 612.991 313.872 612.65 314.261C612.31 314.602 611.872 314.772 611.336 314.772H602.722ZM628.508 332C628.021 332 627.583 331.83 627.194 331.489C626.853 331.148 626.683 330.71 626.683 330.175V324.262C626.683 323.727 626.853 323.289 627.194 322.948C627.583 322.607 628.021 322.437 628.508 322.437H651.941V330.321C651.941 330.808 651.77 331.221 651.43 331.562C651.089 331.854 650.651 332 650.116 332H628.508ZM643.035 332C642.499 332 642.061 331.83 641.721 331.489C641.38 331.148 641.21 330.71 641.21 330.175L640.115 307.691C640.066 305.89 639.871 304.382 639.531 303.165C639.19 301.9 638.606 300.951 637.779 300.318C636.951 299.685 635.71 299.369 634.056 299.369H630.406C629.919 299.369 629.481 299.199 629.092 298.858C628.751 298.469 628.581 298.006 628.581 297.471V291.704C628.581 291.169 628.751 290.731 629.092 290.39C629.481 290.049 629.919 289.879 630.406 289.879H634.348C637.511 289.879 640.212 290.244 642.451 290.974C644.689 291.655 646.514 292.75 647.926 294.259C649.386 295.719 650.456 297.593 651.138 299.88C651.868 302.119 652.306 304.771 652.452 307.837L653.474 330.175C653.522 330.71 653.352 331.148 652.963 331.489C652.573 331.83 652.135 332 651.649 332H643.035ZM668.543 332C668.008 332 667.546 331.83 667.156 331.489C666.816 331.148 666.645 330.71 666.645 330.175V323.824C666.645 323.289 666.816 322.851 667.156 322.51C667.546 322.169 668.008 321.999 668.543 321.999H679.128C682.097 321.999 684.311 321.245 685.771 319.736C687.231 318.227 688.034 316.086 688.18 313.312C688.229 312.436 688.253 311.706 688.253 311.122C688.253 310.538 688.229 309.832 688.18 309.005C688.034 306.182 687.231 304.041 685.771 302.581C684.311 301.072 682.097 300.318 679.128 300.318H668.543C668.008 300.318 667.546 300.148 667.156 299.807C666.816 299.466 666.645 299.028 666.645 298.493V292.142C666.645 291.607 666.816 291.169 667.156 290.828C667.546 290.487 668.008 290.317 668.543 290.317H679.493C684.165 290.317 687.937 291.096 690.808 292.653C693.68 294.162 695.797 296.327 697.159 299.15C698.571 301.924 699.374 305.209 699.568 309.005C699.617 309.832 699.641 310.538 699.641 311.122C699.641 311.706 699.617 312.436 699.568 313.312C699.374 317.059 698.571 320.344 697.159 323.167C695.797 325.99 693.68 328.18 690.808 329.737C687.937 331.246 684.165 332 679.493 332H668.543ZM715.4 332C714.865 332 714.427 331.83 714.086 331.489C713.745 331.148 713.575 330.71 713.575 330.175V292.142C713.575 291.607 713.745 291.169 714.086 290.828C714.427 290.487 714.865 290.317 715.4 290.317H724.014C724.549 290.317 724.987 290.487 725.328 290.828C725.669 291.169 725.839 291.607 725.839 292.142V330.175C725.839 330.71 725.669 331.148 725.328 331.489C724.987 331.83 724.549 332 724.014 332H715.4ZM744.603 299.88C744.068 299.88 743.63 299.71 743.289 299.369C742.948 299.028 742.778 298.59 742.778 298.055V292.142C742.778 291.607 742.948 291.169 743.289 290.828C743.63 290.487 744.068 290.317 744.603 290.317H764.605C768.985 290.317 772.659 290.95 775.628 292.215C778.597 293.432 780.835 295.354 782.344 297.982C783.853 300.61 784.607 304.017 784.607 308.202V330.175C784.607 330.71 784.437 331.148 784.096 331.489C783.755 331.83 783.317 332 782.782 332H774.606C774.071 332 773.633 331.83 773.292 331.489C772.951 331.148 772.781 330.735 772.781 330.248V308.567C772.781 305.744 772.075 303.603 770.664 302.143C769.301 300.634 767.136 299.88 764.167 299.88H744.603ZM753.655 294.843H756.94C758.254 294.843 759.154 295.111 759.641 295.646C760.176 296.181 760.322 296.741 760.079 297.325C759.641 298.882 759.276 300.367 758.984 301.778C758.692 303.141 758.473 304.552 758.327 306.012C758.23 307.472 758.181 309.102 758.181 310.903L758.765 330.175C758.765 330.71 758.57 331.148 758.181 331.489C757.84 331.83 757.427 332 756.94 332L741.829 331.927C741.342 331.927 740.904 331.757 740.515 331.416C740.174 331.075 740.004 330.637 740.004 330.102V324.7C740.004 324.165 740.174 323.727 740.515 323.386C740.904 322.997 741.342 322.802 741.829 322.802L747.742 322.875V311.049C747.742 309.443 747.791 307.934 747.888 306.523C747.985 305.063 748.156 303.579 748.399 302.07C748.691 300.561 749.105 298.98 749.64 297.325C749.883 296.644 750.273 296.06 750.808 295.573C751.392 295.086 752.341 294.843 753.655 294.843ZM808.499 332.876C808.012 333.022 807.55 332.876 807.112 332.438C806.723 332 806.528 331.538 806.528 331.051V324.043C806.528 323.556 806.698 323.094 807.039 322.656C807.38 322.218 807.818 321.902 808.353 321.707L810.689 320.758C812.052 320.174 813.293 319.444 814.412 318.568C815.58 317.643 816.505 316.427 817.186 314.918C817.867 313.409 818.208 311.438 818.208 309.005C818.208 306.912 817.965 305.233 817.478 303.968C816.991 302.703 816.164 301.778 814.996 301.194C813.877 300.61 812.271 300.318 810.178 300.318H808.499C808.012 300.318 807.574 300.148 807.185 299.807C806.844 299.466 806.674 299.028 806.674 298.493V292.069C806.674 291.582 806.844 291.169 807.185 290.828C807.574 290.487 808.012 290.317 808.499 290.317H812.587C816.967 290.317 820.447 291.023 823.026 292.434C825.654 293.797 827.528 295.865 828.647 298.639C829.815 301.364 830.399 304.722 830.399 308.713C830.399 312.022 829.864 314.967 828.793 317.546C827.771 320.125 826.36 322.388 824.559 324.335C822.758 326.233 820.739 327.815 818.5 329.08C816.261 330.345 813.901 331.319 811.419 332L808.499 332.876ZM811.054 300.318H798.717C798.23 300.318 797.792 300.148 797.403 299.807C797.062 299.466 796.892 299.028 796.892 298.493V281.995C796.892 281.46 797.062 281.022 797.403 280.681C797.792 280.34 798.23 280.17 798.717 280.17H806.163C806.698 280.17 807.136 280.34 807.477 280.681C807.818 281.022 807.988 281.46 807.988 281.995V290.317H811.127L811.054 300.318ZM886.723 332C886.188 332 885.725 331.83 885.336 331.489C884.995 331.148 884.825 330.735 884.825 330.248V308.567C884.825 305.744 884.144 303.603 882.781 302.143C881.418 300.634 879.228 299.88 876.211 299.88H865.261C864.774 299.88 864.336 299.71 863.947 299.369C863.606 299.028 863.436 298.59 863.436 298.055V292.142C863.436 291.607 863.606 291.169 863.947 290.828C864.336 290.487 864.774 290.317 865.261 290.317H876.649C881.029 290.317 884.703 290.901 887.672 292.069C890.641 293.237 892.879 295.135 894.388 297.763C895.945 300.342 896.724 303.798 896.724 308.129V330.175C896.724 330.71 896.529 331.148 896.14 331.489C895.799 331.83 895.361 332 894.826 332H886.723ZM913.206 314.772C912.671 314.772 912.233 314.602 911.892 314.261C911.551 313.872 911.381 313.434 911.381 312.947V292.142C911.381 291.607 911.551 291.169 911.892 290.828C912.233 290.487 912.671 290.317 913.206 290.317H921.82C922.355 290.317 922.793 290.487 923.134 290.828C923.475 291.169 923.645 291.607 923.645 292.142V312.947C923.645 313.434 923.475 313.872 923.134 314.261C922.793 314.602 922.355 314.772 921.82 314.772H913.206ZM940.671 332C940.135 332 939.697 331.83 939.357 331.489C939.016 331.148 938.846 330.71 938.846 330.175V292.142C938.846 291.607 939.016 291.169 939.357 290.828C939.697 290.487 940.135 290.317 940.671 290.317H957.68C962.108 290.317 965.807 290.925 968.776 292.142C971.744 293.359 973.983 295.305 975.492 297.982C977 300.659 977.755 304.187 977.755 308.567V330.175C977.755 330.71 977.584 331.148 977.244 331.489C976.903 331.83 976.465 332 975.93 332H967.754C967.218 332 966.78 331.83 966.44 331.489C966.099 331.148 965.929 330.735 965.929 330.248V308.567C965.929 305.744 965.223 303.603 963.812 302.143C962.449 300.634 960.283 299.88 957.315 299.88H950.672V330.175C950.672 330.71 950.501 331.148 950.161 331.489C949.82 331.83 949.382 332 948.847 332H940.671ZM1014.94 300.318H993.699C993.164 300.318 992.726 300.148 992.385 299.807C992.044 299.466 991.874 299.028 991.874 298.493V292.142C991.874 291.607 992.044 291.169 992.385 290.828C992.726 290.487 993.164 290.317 993.699 290.317H1016.69C1019.95 290.317 1022.85 290.95 1025.38 292.215C1027.96 293.48 1029.98 295.427 1031.44 298.055C1032.9 300.683 1033.63 304.041 1033.63 308.129V330.175C1033.63 330.71 1033.46 331.148 1033.12 331.489C1032.78 331.83 1032.34 332 1031.8 332H1012.02C1011.54 332 1011.1 331.83 1010.71 331.489C1010.37 331.148 1010.2 330.71 1010.2 330.175V324.262C1010.2 323.727 1010.37 323.289 1010.71 322.948C1011.1 322.607 1011.54 322.437 1012.02 322.437H1021.8V308.713C1021.8 306.912 1021.51 305.379 1020.93 304.114C1020.34 302.849 1019.52 301.9 1018.45 301.267C1017.42 300.634 1016.26 300.318 1014.94 300.318ZM993.115 332C992.628 332 992.19 331.83 991.801 331.489C991.412 331.1 991.266 330.662 991.363 330.175L999.101 297.617C999.198 297.13 999.417 296.717 999.758 296.376C1000.1 296.035 1000.51 295.889 1001 295.938L1007.86 296.011C1008.4 296.011 1008.86 296.23 1009.25 296.668C1009.64 297.106 1009.76 297.593 1009.61 298.128L1002.97 330.175C1002.92 330.662 1002.7 331.1 1002.31 331.489C1001.97 331.83 1001.53 332 1001 332H993.115ZM1074.05 299.88C1073.51 299.88 1073.08 299.71 1072.74 299.369C1072.39 299.028 1072.22 298.59 1072.22 298.055V292.142C1072.22 291.607 1072.39 291.169 1072.74 290.828C1073.08 290.487 1073.51 290.317 1074.05 290.317H1094.05C1098.43 290.317 1102.11 290.95 1105.07 292.215C1108.04 293.432 1110.28 295.354 1111.79 297.982C1113.3 300.61 1114.05 304.017 1114.05 308.202V330.175C1114.05 330.71 1113.88 331.148 1113.54 331.489C1113.2 331.83 1112.76 332 1112.23 332H1104.05C1103.52 332 1103.08 331.83 1102.74 331.489C1102.4 331.148 1102.23 330.735 1102.23 330.248V308.567C1102.23 305.744 1101.52 303.603 1100.11 302.143C1098.75 300.634 1096.58 299.88 1093.61 299.88H1074.05ZM1083.1 294.843H1086.39C1087.7 294.843 1088.6 295.111 1089.09 295.646C1089.62 296.181 1089.77 296.741 1089.53 297.325C1089.09 298.882 1088.72 300.367 1088.43 301.778C1088.14 303.141 1087.92 304.552 1087.77 306.012C1087.68 307.472 1087.63 309.102 1087.63 310.903L1088.21 330.175C1088.21 330.71 1088.02 331.148 1087.63 331.489C1087.29 331.83 1086.87 332 1086.39 332L1071.28 331.927C1070.79 331.927 1070.35 331.757 1069.96 331.416C1069.62 331.075 1069.45 330.637 1069.45 330.102V324.7C1069.45 324.165 1069.62 323.727 1069.96 323.386C1070.35 322.997 1070.79 322.802 1071.28 322.802L1077.19 322.875V311.049C1077.19 309.443 1077.24 307.934 1077.33 306.523C1077.43 305.063 1077.6 303.579 1077.85 302.07C1078.14 300.561 1078.55 298.98 1079.09 297.325C1079.33 296.644 1079.72 296.06 1080.25 295.573C1080.84 295.086 1081.79 294.843 1083.1 294.843ZM1129.31 336.088C1128.77 336.185 1128.29 336.064 1127.85 335.723C1127.46 335.382 1127.27 334.969 1127.27 334.482V328.423C1127.27 327.936 1127.41 327.523 1127.7 327.182C1128.04 326.793 1128.43 326.549 1128.87 326.452L1144.93 322.437C1147.61 321.756 1149.65 320.88 1151.06 319.809C1152.52 318.738 1153.5 317.4 1153.98 315.794C1154.52 314.188 1154.79 312.29 1154.79 310.1V292.069C1154.79 291.582 1154.96 291.169 1155.3 290.828C1155.69 290.487 1156.12 290.317 1156.61 290.317H1164.79C1165.32 290.317 1165.76 290.487 1166.1 290.828C1166.44 291.169 1166.61 291.607 1166.61 292.142V313.604C1166.61 316.816 1165.86 319.663 1164.35 322.145C1162.89 324.627 1160.75 326.72 1157.93 328.423C1155.1 330.078 1151.72 331.294 1147.78 332.073L1129.31 336.088ZM1138.73 330.248L1128.43 293.237C1128.34 292.848 1128.24 292.556 1128.14 292.361C1128.09 292.166 1128.07 291.972 1128.07 291.777C1128.07 291.388 1128.21 291.047 1128.51 290.755C1128.8 290.463 1129.14 290.317 1129.53 290.317H1138.51C1139.43 290.317 1139.99 290.682 1140.19 291.412L1149.31 328.569L1138.73 330.248ZM1183.32 332C1182.79 332 1182.35 331.83 1182.01 331.489C1181.67 331.148 1181.5 330.71 1181.5 330.175V324.043C1181.5 323.508 1181.67 323.07 1182.01 322.729C1182.35 322.388 1182.79 322.218 1183.32 322.218H1200.62L1179.31 292.945C1179.21 292.75 1179.11 292.556 1179.01 292.361C1178.92 292.166 1178.87 291.972 1178.87 291.777C1178.87 291.339 1179.01 290.998 1179.31 290.755C1179.65 290.463 1180.04 290.317 1180.47 290.317H1189.01C1189.7 290.317 1190.21 290.487 1190.55 290.828C1190.89 291.12 1191.16 291.388 1191.35 291.631L1213.47 322.145C1213.71 322.486 1213.93 322.851 1214.13 323.24C1214.37 323.581 1214.49 324.019 1214.49 324.554V330.175C1214.49 330.71 1214.3 331.148 1213.91 331.489C1213.57 331.83 1213.15 332 1212.67 332H1183.32ZM1206.61 314.772L1200.69 306.815C1202.45 305.744 1203.66 304.333 1204.34 302.581C1205.03 300.829 1205.37 298.809 1205.37 296.522V292.215C1205.37 291.631 1205.54 291.169 1205.88 290.828C1206.27 290.487 1206.71 290.317 1207.19 290.317H1214.49C1215.03 290.317 1215.47 290.512 1215.81 290.901C1216.15 291.29 1216.32 291.728 1216.32 292.215V298.639C1216.32 302.046 1215.49 305.16 1213.83 307.983C1212.18 310.806 1209.77 313.069 1206.61 314.772ZM1259.6 332C1259.07 332 1258.61 331.83 1258.22 331.489C1257.88 331.148 1257.71 330.735 1257.71 330.248V308.567C1257.71 305.744 1257.02 303.603 1255.66 302.143C1254.3 300.634 1252.11 299.88 1249.09 299.88H1232.74C1232.2 299.88 1231.77 299.71 1231.43 299.369C1231.08 299.028 1230.91 298.59 1230.91 298.055V292.142C1230.91 291.607 1231.08 291.169 1231.43 290.828C1231.77 290.487 1232.2 290.317 1232.74 290.317H1249.46C1256.03 290.317 1261.01 291.801 1264.42 294.77C1267.88 297.69 1269.6 302.289 1269.6 308.567V330.175C1269.6 330.71 1269.41 331.148 1269.02 331.489C1268.68 331.83 1268.24 332 1267.71 332H1259.6ZM1232.74 332C1232.2 332 1231.77 331.83 1231.43 331.489C1231.08 331.148 1230.91 330.71 1230.91 330.175V308.567C1230.91 308.08 1231.08 307.667 1231.43 307.326C1231.77 306.937 1232.2 306.742 1232.74 306.742H1240.92C1241.45 306.742 1241.89 306.937 1242.23 307.326C1242.57 307.667 1242.74 308.08 1242.74 308.567V330.175C1242.74 330.71 1242.57 331.148 1242.23 331.489C1241.89 331.83 1241.45 332 1240.92 332H1232.74ZM1306.65 300.318H1285.41C1284.88 300.318 1284.44 300.148 1284.1 299.807C1283.76 299.466 1283.59 299.028 1283.59 298.493V292.142C1283.59 291.607 1283.76 291.169 1284.1 290.828C1284.44 290.487 1284.88 290.317 1285.41 290.317H1308.41C1311.67 290.317 1314.56 290.95 1317.09 292.215C1319.67 293.48 1321.69 295.427 1323.15 298.055C1324.61 300.683 1325.34 304.041 1325.34 308.129V330.175C1325.34 330.71 1325.17 331.148 1324.83 331.489C1324.49 331.83 1324.05 332 1323.52 332H1303.73C1303.25 332 1302.81 331.83 1302.42 331.489C1302.08 331.148 1301.91 330.71 1301.91 330.175V324.262C1301.91 323.727 1302.08 323.289 1302.42 322.948C1302.81 322.607 1303.25 322.437 1303.73 322.437H1313.52V308.713C1313.52 306.912 1313.22 305.379 1312.64 304.114C1312.06 302.849 1311.23 301.9 1310.16 301.267C1309.14 300.634 1307.97 300.318 1306.65 300.318ZM1284.83 332C1284.34 332 1283.9 331.83 1283.51 331.489C1283.12 331.1 1282.98 330.662 1283.07 330.175L1290.81 297.617C1290.91 297.13 1291.13 296.717 1291.47 296.376C1291.81 296.035 1292.22 295.889 1292.71 295.938L1299.57 296.011C1300.11 296.011 1300.57 296.23 1300.96 296.668C1301.35 297.106 1301.47 297.593 1301.32 298.128L1294.68 330.175C1294.63 330.662 1294.41 331.1 1294.02 331.489C1293.68 331.83 1293.25 332 1292.71 332H1284.83Z" fill="#200060"/>
</g>
<defs>
<clipPath id="clip0_837_191">
<rect width="1374" height="364" fill="white"/>
</clipPath>
</defs>
</svg>
